<svg aria-hidden="true" style="width:0;height:0;position:absolute;overflow:hidden" xmlns="http://www.w3.org/2000/svg"><defs><symbol id="icon-Telegram_black" viewBox="0 0 32 32"><path d="M32 16c0 8.837-7.163 16-16 16S0 24.837 0 16 7.163 0 16 0s16 7.163 16 16z"/><path fill="#fff" style="fill:var(--color2,#fff)" d="M7.339 15.725q6.979-3.041 9.307-4.01c4.432-1.843 5.358-2.163 5.953-2.175h.02c.224 0 .431.07.602.189l-.003-.002a.663.663 0 0 1 .227.429v.003a2.81 2.81 0 0 1 .026.639v-.009c-.24 2.53-1.28 8.646-1.808 11.472-.223 1.191-.664 1.597-1.091 1.637-.926.085-1.637-.613-2.53-1.201-1.405-.921-2.198-1.488-3.562-2.393-1.576-1.042-.554-1.609.344-2.541.235-.244 4.316-3.959 4.397-4.295a.32.32 0 0 0-.075-.283.371.371 0 0 0-.333-.03l.003-.001q-.21.046-6.73 4.449-.956.656-1.731.64c-.57-.013-1.665-.323-2.481-.595-.999-.324-1.786-.496-1.724-1.042q.055-.429 1.188-.88z"/></symbol><symbol id="icon-Twitter_black" viewBox="0 0 32 32"><path d="M32 16c0 8.837-7.163 16-16 16S0 24.837 0 16 7.163 0 16 0s16 7.163 16 16z"/><path fill="#fff" style="fill:var(--color2,#fff)" d="M13.246 23.01c6.141 0 9.499-5.087 9.499-9.499 0-.149 0-.287-.01-.43a6.86 6.86 0 0 0 1.65-1.704l.015-.024a6.503 6.503 0 0 1-1.885.522l-.032.003a3.371 3.371 0 0 0 1.461-1.823l.007-.024c-.61.368-1.32.649-2.076.802l-.043.007a3.341 3.341 0 0 0-5.684 3.067l-.005-.023a9.468 9.468 0 0 1-6.866-3.47l-.013-.017a3.338 3.338 0 0 0 1.021 4.448l.012.008a3.298 3.298 0 0 1-1.532-.427l.017.009V14.478a3.34 3.34 0 0 0 2.657 3.27l.022.004a3.347 3.347 0 0 1-1.528.053l.021.004a3.347 3.347 0 0 0 3.123 2.319h.003a6.637 6.637 0 0 1-4.132 1.432c-.285 0-.566-.018-.841-.052l.033.003a9.343 9.343 0 0 0 5.097 1.496h.01-.001z"/></symbol></defs></svg>