<?xml version="1.0" standalone="no"?>
<!DOCTYPE svg PUBLIC "-//W3C//DTD SVG 20010904//EN"
 "http://www.w3.org/TR/2001/REC-SVG-20010904/DTD/svg10.dtd">
<svg version="1.0" xmlns="http://www.w3.org/2000/svg"
 width="4961.000000pt" height="3508.000000pt" viewBox="0 0 4961.000000 3508.000000"
 preserveAspectRatio="xMidYMid meet">

<g transform="translate(0.000000,3508.000000) scale(0.100000,-0.100000)"
fill="#000000" stroke="none">
<path d="M24528 31043 c12 -2 32 -2 45 0 12 2 2 4 -23 4 -25 0 -35 -2 -22 -4z"/>
<path d="M24948 31043 c23 -2 61 -2 85 0 23 2 4 4 -43 4 -47 0 -66 -2 -42 -4z"/>
<path d="M25683 31013 c15 -2 37 -2 50 0 12 2 0 4 -28 4 -27 0 -38 -2 -22 -4z"/>
<path d="M26083 30983 c9 -2 25 -2 35 0 9 3 1 5 -18 5 -19 0 -27 -2 -17 -5z"/>
<path d="M26340 30950 c20 -13 43 -13 35 0 -3 6 -16 10 -28 10 -18 0 -19 -2
-7 -10z"/>
<path d="M26590 30919 c0 -5 11 -9 25 -9 14 0 25 2 25 4 0 2 -11 6 -25 8 -14
3 -25 1 -25 -3z"/>
<path d="M26813 30883 c9 -2 23 -2 30 0 6 3 -1 5 -18 5 -16 0 -22 -2 -12 -5z"/>
<path d="M26983 30853 c9 -2 25 -2 35 0 9 3 1 5 -18 5 -19 0 -27 -2 -17 -5z"/>
<path d="M27163 30823 c9 -2 23 -2 30 0 6 3 -1 5 -18 5 -16 0 -22 -2 -12 -5z"/>
<path d="M27320 30796 c0 -8 51 -13 56 -5 3 5 -9 9 -25 9 -17 0 -31 -2 -31 -4z"/>
<path d="M27480 30760 c20 -13 43 -13 35 0 -3 6 -16 10 -28 10 -18 0 -19 -2
-7 -10z"/>
<path d="M27615 30730 c3 -5 16 -10 28 -9 21 0 21 1 2 9 -28 12 -37 12 -30 0z"/>
<path d="M27763 30693 c9 -2 23 -2 30 0 6 3 -1 5 -18 5 -16 0 -22 -2 -12 -5z"/>
<path d="M27898 30663 c6 -2 18 -2 25 0 6 3 1 5 -13 5 -14 0 -19 -2 -12 -5z"/>
<path d="M28023 30633 c9 -2 23 -2 30 0 6 3 -1 5 -18 5 -16 0 -22 -2 -12 -5z"/>
<path d="M28135 30600 c28 -12 47 -12 40 0 -3 6 -18 10 -33 9 -24 0 -25 -1 -7
-9z"/>
<path d="M28245 30570 c3 -5 16 -10 28 -10 18 0 19 2 7 10 -20 13 -43 13 -35
0z"/>
<path d="M28355 30540 c3 -5 16 -10 28 -9 21 0 21 1 2 9 -28 12 -37 12 -30 0z"/>
<path d="M28470 30509 c0 -5 9 -9 20 -9 11 0 20 2 20 4 0 2 -9 6 -20 9 -11 3
-20 1 -20 -4z"/>
<path d="M28583 30473 c9 -2 23 -2 30 0 6 3 -1 5 -18 5 -16 0 -22 -2 -12 -5z"/>
<path d="M28670 30446 c0 -2 9 -6 20 -9 11 -3 20 -1 20 4 0 5 -9 9 -20 9 -11
0 -20 -2 -20 -4z"/>
<path d="M28770 30410 c20 -13 43 -13 35 0 -3 6 -16 10 -28 10 -18 0 -19 -2
-7 -10z"/>
<path d="M28860 30380 c20 -13 43 -13 35 0 -3 6 -16 10 -28 10 -18 0 -19 -2
-7 -10z"/>
<path d="M28955 30350 c3 -5 14 -10 23 -10 15 0 15 2 2 10 -20 13 -33 13 -25
0z"/>
<path d="M29045 30320 c3 -5 16 -10 28 -9 21 0 21 1 2 9 -28 12 -37 12 -30 0z"/>
<path d="M29148 30283 c6 -2 18 -2 25 0 6 3 1 5 -13 5 -14 0 -19 -2 -12 -5z"/>
<path d="M29235 30250 c3 -5 13 -10 21 -10 8 0 14 5 14 10 0 6 -9 10 -21 10
-11 0 -17 -4 -14 -10z"/>
<path d="M29310 30220 c20 -13 43 -13 35 0 -3 6 -16 10 -28 10 -18 0 -19 -2
-7 -10z"/>
<path d="M29395 30190 c3 -5 13 -10 21 -10 8 0 12 5 9 10 -3 6 -13 10 -21 10
-8 0 -12 -4 -9 -10z"/>
<path d="M29475 30160 c3 -5 13 -10 21 -10 8 0 12 5 9 10 -3 6 -13 10 -21 10
-8 0 -12 -4 -9 -10z"/>
<path d="M29550 30129 c0 -5 9 -9 20 -9 11 0 20 2 20 4 0 2 -9 6 -20 9 -11 3
-20 1 -20 -4z"/>
<path d="M29638 30093 c6 -2 18 -2 25 0 6 3 1 5 -13 5 -14 0 -19 -2 -12 -5z"/>
<path d="M29720 30060 c20 -13 43 -13 35 0 -3 6 -16 10 -28 10 -18 0 -19 -2
-7 -10z"/>
<path d="M29795 30030 c3 -5 13 -10 21 -10 8 0 12 5 9 10 -3 6 -13 10 -21 10
-8 0 -12 -4 -9 -10z"/>
<path d="M29865 30000 c3 -5 13 -10 21 -10 8 0 12 5 9 10 -3 6 -13 10 -21 10
-8 0 -12 -4 -9 -10z"/>
<path d="M29930 29970 c0 -5 10 -10 23 -10 18 0 19 2 7 10 -19 13 -30 13 -30
0z"/>
<path d="M30000 29939 c0 -5 9 -9 20 -9 11 0 20 2 20 4 0 2 -9 6 -20 9 -11 3
-20 1 -20 -4z"/>
<path d="M30080 29900 c20 -13 43 -13 35 0 -3 6 -16 10 -28 10 -18 0 -19 -2
-7 -10z"/>
<path d="M30145 29870 c3 -5 15 -10 26 -10 11 0 17 5 14 10 -3 6 -15 10 -26
10 -11 0 -17 -4 -14 -10z"/>
<path d="M30215 29840 c3 -5 13 -10 21 -10 8 0 12 5 9 10 -3 6 -13 10 -21 10
-8 0 -12 -4 -9 -10z"/>
<path d="M30285 29810 c3 -5 13 -10 21 -10 8 0 12 5 9 10 -3 6 -13 10 -21 10
-8 0 -12 -4 -9 -10z"/>
<path d="M30355 29780 c3 -5 14 -10 23 -10 15 0 15 2 2 10 -20 13 -33 13 -25
0z"/>
<path d="M30415 29750 c3 -5 14 -10 23 -10 15 0 15 2 2 10 -20 13 -33 13 -25
0z"/>
<path d="M30484 29715 c22 -17 40 -20 32 -6 -3 5 -16 11 -28 14 -22 6 -22 5
-4 -8z"/>
<path d="M30540 29680 c20 -13 43 -13 35 0 -3 6 -16 10 -28 10 -18 0 -19 -2
-7 -10z"/>
<path d="M30605 29650 c3 -5 13 -10 21 -10 8 0 12 5 9 10 -3 6 -13 10 -21 10
-8 0 -12 -4 -9 -10z"/>
<path d="M30665 29620 c3 -5 13 -10 21 -10 8 0 12 5 9 10 -3 6 -13 10 -21 10
-8 0 -12 -4 -9 -10z"/>
<path d="M30725 29590 c3 -5 14 -10 23 -10 15 0 15 2 2 10 -20 13 -33 13 -25
0z"/>
<path d="M30784 29561 c3 -5 16 -11 28 -14 22 -6 22 -5 4 8 -22 17 -40 20 -32
6z"/>
<path d="M30854 29525 c11 -8 25 -15 30 -15 6 0 2 7 -8 15 -11 8 -25 15 -30
15 -6 0 -2 -7 8 -15z"/>
<path d="M30915 29490 c3 -5 13 -10 21 -10 8 0 12 5 9 10 -3 6 -13 10 -21 10
-8 0 -12 -4 -9 -10z"/>
<path d="M30970 29460 c0 -5 9 -10 21 -10 11 0 17 5 14 10 -3 6 -13 10 -21 10
-8 0 -14 -4 -14 -10z"/>
<path d="M31025 29430 c3 -5 13 -10 21 -10 8 0 12 5 9 10 -3 6 -13 10 -21 10
-8 0 -12 -4 -9 -10z"/>
<path d="M31075 29400 c3 -5 14 -10 23 -10 15 0 15 2 2 10 -20 13 -33 13 -25
0z"/>
<path d="M31130 29370 c0 -5 4 -10 9 -10 5 0 18 -3 28 -6 16 -5 16 -4 -1 10
-23 18 -36 20 -36 6z"/>
<path d="M31195 29330 c3 -5 13 -10 21 -10 8 0 12 5 9 10 -3 6 -13 10 -21 10
-8 0 -12 -4 -9 -10z"/>
<path d="M31240 29311 c0 -10 30 -24 37 -17 3 2 -5 9 -16 16 -12 6 -21 7 -21
1z"/>
<path d="M31290 29279 c0 -12 25 -22 41 -17 6 2 0 9 -15 16 -16 7 -26 8 -26 1z"/>
<path d="M31355 29240 c3 -5 13 -10 21 -10 8 0 12 5 9 10 -3 6 -13 10 -21 10
-8 0 -12 -4 -9 -10z"/>
<path d="M31410 29211 c0 -5 7 -12 16 -15 24 -9 28 -7 14 9 -14 17 -30 20 -30
6z"/>
<path d="M31460 29180 c0 -7 24 -20 36 -20 13 0 1 19 -16 23 -11 3 -20 2 -20
-3z"/>
<path d="M31512 29148 c3 -7 13 -15 24 -17 16 -3 17 -1 5 13 -16 19 -34 21
-29 4z"/>
<path d="M31565 29110 c3 -5 13 -10 21 -10 8 0 12 5 9 10 -3 6 -13 10 -21 10
-8 0 -12 -4 -9 -10z"/>
<path d="M31610 29090 c0 -12 28 -25 36 -17 3 3 -4 10 -15 17 -15 7 -21 7 -21
0z"/>
<path d="M31685 29036 c17 -14 39 -27 50 -30 14 -3 9 4 -15 24 -19 16 -42 30
-50 30 -9 0 -3 -10 15 -24z"/>
<path d="M31760 28993 c1 -12 71 -54 83 -50 6 2 -7 14 -29 27 -50 32 -54 33
-54 23z"/>
<path d="M31860 28930 c0 -6 8 -14 18 -17 9 -4 23 -13 30 -20 7 -7 20 -13 29
-13 9 0 1 10 -18 23 -54 37 -59 39 -59 27z"/>
<path d="M31955 28860 c3 -5 11 -10 16 -10 13 0 72 -41 82 -57 4 -7 12 -13 18
-13 5 0 15 -5 22 -10 35 -30 107 -80 114 -80 4 0 22 -12 38 -28 40 -36 92 -72
104 -72 5 0 11 -7 15 -15 3 -8 12 -15 20 -15 7 0 16 -7 20 -15 3 -8 10 -15 17
-15 12 0 216 -153 235 -176 6 -8 16 -14 23 -14 6 0 11 -4 11 -8 0 -4 12 -15
28 -24 15 -9 41 -30 58 -46 17 -15 61 -50 98 -77 36 -27 66 -52 66 -57 0 -4 7
-8 15 -8 8 0 15 -4 15 -8 0 -4 22 -25 50 -46 27 -20 67 -54 88 -74 37 -34 76
-68 162 -138 19 -16 49 -42 66 -59 18 -16 54 -49 81 -72 96 -82 418 -389 542
-517 287 -295 471 -491 471 -502 0 -3 12 -17 28 -32 15 -15 45 -49 67 -77 22
-27 54 -64 70 -81 61 -66 141 -159 183 -213 24 -31 48 -57 53 -59 5 -2 9 -8 9
-14 0 -9 63 -92 86 -113 6 -5 33 -39 59 -75 27 -36 56 -73 64 -82 21 -23 31
-35 65 -85 16 -24 33 -43 37 -43 5 0 9 -7 9 -15 0 -9 7 -18 15 -21 8 -4 15
-11 15 -16 0 -5 8 -20 18 -33 9 -12 24 -33 32 -45 8 -12 20 -28 25 -34 6 -6
23 -31 40 -55 16 -24 31 -38 33 -33 2 6 -18 40 -45 76 -231 312 -288 386 -295
386 -4 0 -8 4 -8 9 0 5 -9 20 -20 33 -11 12 -57 70 -102 128 -45 58 -84 107
-87 110 -3 3 -24 28 -46 55 -21 28 -42 52 -45 55 -9 8 -133 150 -209 240 -69
80 -183 203 -401 434 -113 119 -184 190 -312 311 -261 247 -366 344 -513 470
-297 255 -317 272 -457 379 -70 53 -133 103 -140 109 -17 16 -178 139 -200
152 -9 6 -69 48 -134 95 -308 223 -392 277 -369 240z"/>
<path d="M35350 25553 c0 -6 6 -18 13 -25 7 -7 16 -21 20 -30 3 -10 11 -18 17
-18 5 0 10 -6 10 -13 0 -8 9 -22 20 -32 11 -10 20 -22 20 -27 0 -5 6 -16 14
-24 8 -7 16 -19 19 -26 2 -7 8 -10 12 -6 4 4 -6 24 -22 45 -16 21 -39 54 -51
73 -32 50 -72 97 -72 83z"/>
<path d="M35510 25327 c0 -9 5 -19 11 -22 5 -4 15 -19 21 -33 6 -15 12 -22 15
-16 2 7 -8 29 -22 49 -14 21 -25 31 -25 22z"/>
<path d="M35570 25228 c0 -18 18 -34 28 -24 3 4 -2 14 -11 23 -16 16 -17 16
-17 1z"/>
<path d="M35600 25182 c0 -5 9 -19 20 -32 11 -13 20 -29 20 -37 0 -7 5 -13 10
-13 14 0 13 6 -12 50 -22 37 -38 51 -38 32z"/>
<path d="M35670 25077 c0 -9 5 -19 11 -22 5 -4 15 -19 21 -33 6 -15 12 -22 15
-16 2 7 -8 29 -22 49 -14 21 -25 31 -25 22z"/>
<path d="M35730 24981 c0 -5 6 -16 13 -23 15 -18 34 -46 49 -78 7 -14 18 -31
24 -37 7 -7 14 -18 17 -25 2 -7 8 -10 12 -6 3 3 -2 19 -13 35 -11 15 -36 54
-57 86 -37 57 -45 65 -45 48z"/>
<path d="M35860 24776 c0 -8 5 -18 10 -21 6 -3 10 1 10 9 0 8 -4 18 -10 21 -5
3 -10 -1 -10 -9z"/>
<path d="M35890 24723 c0 -12 5 -25 11 -28 17 -11 18 -2 4 25 -14 24 -14 24
-15 3z"/>
<path d="M24042 24660 c0 -14 2 -19 5 -12 2 6 2 18 0 25 -3 6 -5 1 -5 -13z"/>
<path d="M35920 24676 c0 -16 44 -88 48 -77 2 7 -3 20 -12 30 -9 10 -16 23
-16 29 0 6 -4 14 -10 17 -5 3 -10 4 -10 1z"/>
<path d="M35984 24567 c3 -10 6 -23 6 -28 0 -5 5 -9 10 -9 14 0 12 13 -6 36
-14 17 -15 17 -10 1z"/>
<path d="M24072 24540 c0 -14 2 -19 5 -12 2 6 2 18 0 25 -3 6 -5 1 -5 -13z"/>
<path d="M36020 24496 c0 -8 5 -18 10 -21 6 -3 10 1 10 9 0 8 -4 18 -10 21 -5
3 -10 -1 -10 -9z"/>
<path d="M26085 24441 c-93 -10 -180 -23 -192 -29 -12 -7 -34 -12 -50 -12 -15
0 -48 -6 -73 -14 -64 -20 -210 -48 -415 -78 -50 -7 -230 -12 -480 -12 l-400
-1 -3 -25 c-6 -43 -51 -170 -79 -224 -40 -74 -142 -223 -193 -281 -24 -27 -94
-100 -155 -161 -99 -99 -170 -161 -369 -317 -34 -26 -71 -56 -83 -67 -12 -10
-64 -52 -115 -91 -51 -40 -97 -77 -103 -81 -5 -4 -145 -110 -310 -234 -165
-125 -317 -242 -338 -261 -20 -18 -40 -33 -45 -33 -4 0 -18 -10 -32 -23 -14
-12 -77 -63 -140 -111 -63 -49 -135 -107 -160 -129 -241 -213 -350 -309 -377
-333 -62 -57 -84 -76 -218 -186 -89 -73 -236 -193 -315 -258 -52 -43 -140
-115 -195 -160 -93 -76 -146 -120 -202 -167 -13 -10 -53 -40 -90 -66 -38 -27
-137 -98 -220 -157 -84 -60 -204 -139 -265 -176 -126 -75 -386 -209 -433 -223
-16 -5 -55 -19 -85 -31 -103 -41 -183 -61 -360 -91 -36 -6 -90 -17 -121 -25
-30 -8 -72 -14 -92 -14 -21 0 -54 -7 -74 -15 -19 -8 -45 -15 -57 -15 -11 0
-41 -6 -66 -14 -62 -20 -174 -44 -238 -51 -29 -3 -63 -10 -75 -15 -12 -5 -56
-18 -97 -30 -41 -12 -102 -35 -135 -51 -33 -16 -63 -29 -67 -29 -14 0 -127
-82 -174 -127 -115 -110 -181 -231 -218 -403 -19 -86 -22 -318 -5 -390 6 -25
14 -81 19 -125 4 -44 14 -100 20 -125 7 -25 18 -67 25 -95 7 -27 18 -70 25
-95 27 -111 32 -125 39 -135 5 -5 12 -25 16 -43 4 -18 13 -45 21 -60 8 -15 14
-34 14 -43 0 -9 7 -30 15 -45 23 -44 19 -107 -7 -131 -13 -11 -32 -23 -43 -26
-78 -22 -215 -84 -275 -125 -19 -13 -44 -28 -55 -33 -11 -5 -33 -18 -50 -28
-41 -27 -191 -101 -202 -101 -6 0 -24 -7 -41 -16 -21 -10 -68 -16 -144 -18
l-113 -4 -3 -103 c-4 -136 25 -236 100 -350 35 -53 181 -199 199 -199 4 0 30
-13 56 -28 142 -83 367 -126 460 -87 19 8 44 15 54 15 37 0 161 76 228 140 57
54 161 188 161 207 0 3 6 19 14 36 42 94 56 132 56 156 0 14 7 48 15 75 20 66
20 290 1 360 -15 51 -25 98 -53 231 -27 133 -60 285 -74 340 -5 22 -18 107
-29 188 -18 136 -19 153 -5 207 8 32 15 71 15 88 0 51 78 191 141 253 31 31
68 63 82 70 73 39 116 58 157 68 25 7 61 16 80 21 19 5 103 10 185 10 126 0
166 -4 250 -25 122 -30 136 -43 124 -111 -5 -26 -13 -52 -18 -58 -5 -6 -12
-27 -16 -46 -4 -19 -11 -41 -16 -50 -16 -28 -78 -215 -99 -300 -7 -25 -18 -67
-26 -95 -7 -27 -19 -86 -25 -130 -31 -230 -50 -343 -75 -431 -8 -28 -14 -66
-14 -85 0 -19 -7 -59 -15 -89 -8 -30 -15 -71 -15 -91 0 -20 -6 -59 -14 -85
-14 -47 -27 -106 -46 -207 -8 -42 -33 -118 -86 -259 -8 -21 -21 -57 -30 -80
-49 -132 -72 -164 -227 -311 -240 -226 -282 -271 -321 -353 -20 -40 -36 -81
-36 -91 0 -10 -6 -30 -14 -44 -7 -14 -16 -54 -20 -88 -4 -35 -11 -74 -16 -87
-5 -13 -14 -75 -20 -137 -23 -257 -48 -379 -105 -512 -7 -16 -21 -50 -31 -75
-37 -94 -58 -140 -144 -315 -49 -99 -98 -202 -110 -230 -55 -127 -78 -178
-130 -275 -25 -47 -54 -105 -64 -130 -10 -25 -24 -58 -31 -75 -7 -16 -21 -57
-30 -90 -9 -33 -23 -80 -30 -105 -8 -25 -17 -61 -21 -80 -3 -19 -10 -41 -15
-50 -18 -34 -48 -243 -48 -346 -1 -39 -7 -90 -15 -115 -8 -24 -17 -107 -20
-184 -4 -77 -11 -198 -16 -270 -12 -172 -12 -610 0 -660 6 -22 15 -78 20 -123
5 -46 13 -89 17 -95 5 -7 20 -46 33 -87 14 -41 40 -102 59 -135 44 -76 142
-173 206 -203 28 -13 58 -27 67 -33 10 -5 49 -9 87 -9 149 0 293 93 452 290
24 30 46 57 49 60 3 3 16 21 29 41 29 42 116 109 143 109 11 0 34 -6 51 -14
18 -7 57 -23 87 -35 30 -12 64 -26 75 -31 30 -13 104 -44 155 -64 25 -10 57
-24 72 -32 14 -8 34 -14 43 -14 9 0 31 -6 48 -14 18 -8 43 -16 57 -19 14 -3
39 -10 55 -15 117 -40 306 -60 337 -35 7 6 24 14 38 18 37 11 98 63 124 104
48 77 66 158 66 292 0 68 -5 149 -10 179 -14 76 -36 182 -54 260 -9 36 -22 95
-31 131 -8 37 -19 79 -25 94 -5 14 -10 37 -10 49 0 13 -7 29 -15 36 -8 7 -15
27 -15 44 -1 17 -7 42 -15 56 -8 14 -14 36 -15 48 0 13 -6 38 -13 55 -8 18
-24 66 -36 107 -13 41 -36 102 -51 135 -33 71 -49 117 -59 166 -4 19 -11 41
-15 47 -9 14 -32 95 -51 180 -8 34 -22 90 -30 125 -58 248 -79 463 -72 740 5
179 8 201 27 232 19 31 27 35 61 35 41 0 95 -19 204 -71 33 -16 73 -29 88 -29
15 0 44 -7 64 -15 19 -8 48 -15 64 -15 16 0 64 -6 106 -14 85 -16 211 -31 431
-50 81 -7 148 -18 155 -25 8 -8 12 -64 12 -184 1 -180 4 -199 58 -317 108
-237 395 -381 857 -430 47 -5 119 -14 160 -19 41 -6 147 -10 235 -11 88 0 228
-5 310 -10 83 -5 206 -12 275 -15 248 -11 421 -38 545 -87 113 -45 138 -59
285 -170 146 -109 311 -279 462 -474 123 -159 302 -348 378 -399 25 -16 50
-35 57 -41 19 -18 200 -104 218 -104 10 0 38 -7 64 -15 52 -16 263 -45 331
-45 25 0 70 7 100 15 32 9 102 15 170 15 121 1 170 8 260 34 30 9 80 22 111
29 80 18 162 76 189 133 20 40 22 56 17 125 -4 44 -14 96 -23 117 -46 105 -57
130 -75 162 -11 19 -27 49 -35 65 -8 17 -23 44 -34 60 -11 17 -24 39 -29 51
-5 11 -27 50 -48 85 -55 92 -167 323 -192 397 -15 44 -21 87 -21 148 0 106 21
155 93 220 44 39 123 84 149 84 6 0 24 6 41 14 50 23 174 40 482 67 162 15
572 14 660 -1 65 -10 165 -25 285 -41 41 -6 113 -17 160 -25 47 -8 102 -14
124 -14 39 0 161 -20 276 -46 36 -8 77 -14 91 -14 15 0 49 -6 75 -14 83 -24
230 -46 509 -75 61 -7 137 -16 170 -22 132 -21 641 -2 740 28 11 3 49 12 85
19 36 7 94 20 130 30 36 9 88 18 115 21 44 4 54 1 86 -26 31 -26 109 -159 109
-185 0 -4 6 -22 14 -39 7 -18 21 -54 31 -82 10 -27 33 -84 52 -125 32 -71 42
-92 77 -175 9 -20 22 -50 29 -68 8 -17 24 -57 37 -87 13 -30 29 -70 37 -87 31
-74 42 -100 58 -143 9 -25 23 -58 31 -73 8 -16 14 -34 14 -40 1 -7 9 -30 20
-52 11 -22 19 -45 20 -51 0 -7 7 -25 15 -40 8 -16 15 -36 15 -44 0 -8 7 -24
15 -34 8 -11 15 -31 15 -44 0 -13 5 -33 12 -45 6 -12 15 -38 19 -57 7 -32 25
-95 65 -225 8 -27 21 -83 29 -123 8 -40 17 -77 20 -82 3 -5 10 -53 15 -107 6
-54 14 -120 19 -148 6 -27 10 -186 10 -351 1 -177 6 -323 12 -355 6 -30 14
-70 18 -89 9 -42 67 -168 87 -187 7 -8 35 -42 61 -76 54 -72 63 -81 163 -168
87 -75 155 -129 164 -129 4 0 19 -9 34 -19 122 -86 419 -240 464 -241 7 0 22
-7 32 -15 11 -8 29 -15 40 -15 12 0 30 -7 40 -15 11 -8 26 -15 34 -15 8 0 28
-6 45 -14 18 -7 52 -18 77 -25 25 -6 68 -18 95 -26 80 -22 125 -32 205 -48
233 -46 349 -57 367 -36 6 8 23 50 38 94 15 44 33 94 41 112 8 17 14 39 14 48
0 10 7 40 16 69 9 28 22 71 30 96 8 25 14 53 14 63 0 28 30 74 56 86 24 11 54
5 122 -25 62 -27 97 -42 142 -59 25 -9 59 -23 75 -30 68 -28 141 -55 152 -55
6 0 24 -7 39 -15 16 -8 38 -15 49 -15 11 0 38 -7 60 -15 26 -9 81 -14 153 -15
93 0 120 3 151 20 77 39 115 93 157 224 16 52 18 89 18 275 -1 173 -5 225 -18
260 -9 24 -16 54 -16 67 0 13 -7 40 -16 61 -9 21 -22 52 -28 68 -58 142 -159
304 -276 439 -113 133 -465 459 -574 533 -23 15 -87 62 -143 103 -57 41 -132
95 -168 120 -198 136 -372 278 -521 422 -89 87 -174 177 -190 200 -16 24 -48
69 -72 101 -70 93 -203 358 -232 462 -9 31 -23 75 -46 135 -16 44 -38 124 -57
215 -44 202 -60 275 -74 325 -8 30 -22 80 -30 110 -8 30 -19 69 -25 85 -5 17
-14 44 -18 60 -10 33 -70 204 -88 248 -7 16 -12 32 -12 37 0 5 -6 21 -14 37
-8 15 -22 47 -30 71 -29 77 -48 127 -59 152 -11 26 -57 151 -78 210 -6 19 -18
47 -25 62 -8 14 -14 35 -14 45 0 11 -7 28 -15 39 -8 10 -15 28 -15 40 0 11 -7
29 -15 40 -8 10 -15 27 -15 36 0 10 -6 32 -14 50 -33 77 -100 320 -117 423 -4
28 -13 66 -18 85 -6 19 -11 52 -11 73 0 21 -6 66 -14 100 -28 120 -37 215 -47
477 -12 303 -11 310 50 310 22 0 60 -7 84 -15 78 -26 481 -59 632 -51 150 8
476 56 545 81 19 7 51 17 70 24 171 57 268 104 360 174 47 35 147 136 175 177
34 49 27 69 -26 83 -19 5 -38 13 -43 18 -6 5 -17 9 -25 9 -13 0 -147 63 -196
93 -75 45 -282 215 -398 326 -75 72 -207 224 -207 239 0 18 57 34 149 43 155
15 346 53 416 84 17 7 50 21 75 30 25 9 52 21 60 26 8 4 35 18 60 30 115 58
262 177 334 272 37 48 128 195 150 242 10 22 25 53 32 68 8 16 14 35 14 44 0
8 6 27 14 41 34 63 61 185 107 477 14 91 14 852 -1 1005 -6 63 -17 237 -25
385 -8 149 -20 360 -26 470 -11 207 -5 538 11 595 5 18 12 85 16 149 3 64 12
135 20 159 14 43 19 114 8 124 -9 10 -184 -69 -249 -112 -16 -11 -37 -23 -45
-27 -17 -7 -63 -39 -94 -65 -12 -9 -44 -35 -73 -57 -29 -23 -81 -75 -117 -117
-63 -73 -146 -201 -146 -224 0 -6 -5 -21 -12 -33 -19 -34 -38 -87 -54 -152
-40 -163 -53 -296 -59 -596 -5 -250 -24 -475 -46 -564 -6 -22 -14 -58 -19 -80
-9 -44 -33 -112 -55 -162 -8 -17 -15 -34 -15 -38 0 -21 -117 -179 -169 -227
-58 -54 -169 -128 -192 -128 -6 0 -23 -6 -37 -14 -54 -28 -167 -46 -280 -46
-62 0 -122 5 -132 10 -10 6 -45 14 -77 20 -80 13 -162 34 -198 50 -38 17 -147
66 -205 93 -25 11 -119 69 -209 129 -90 59 -168 108 -174 108 -6 0 -18 6 -26
13 -9 7 -36 21 -61 31 -25 10 -57 24 -72 32 -14 8 -31 14 -38 14 -7 0 -26 6
-43 14 -18 7 -68 25 -112 39 -44 14 -105 36 -135 48 -30 11 -66 23 -80 26 -14
3 -34 12 -45 19 -11 8 -26 14 -33 14 -29 0 -201 85 -270 133 -92 65 -236 211
-345 352 -43 55 -135 183 -140 195 -4 8 -15 27 -25 42 -21 33 -82 134 -102
170 -18 34 -256 509 -374 748 -102 207 -171 333 -226 416 -8 12 -28 44 -44 71
-16 26 -77 111 -135 187 -189 249 -427 444 -721 594 -123 62 -170 83 -240 104
-19 5 -39 14 -45 18 -5 4 -26 11 -45 15 -19 4 -40 11 -46 16 -11 9 -35 15
-159 39 -33 6 -83 18 -111 26 -28 8 -73 14 -100 14 -27 0 -98 7 -159 15 -130
17 -131 17 -350 -4z m288 -187 c51 -8 115 -22 143 -30 28 -8 65 -14 83 -14 18
0 42 -5 54 -12 12 -6 38 -15 57 -19 42 -9 123 -36 167 -55 17 -8 36 -14 41
-14 6 0 23 -7 39 -14 15 -8 35 -17 43 -20 8 -3 22 -10 30 -14 40 -23 83 -42
92 -42 6 0 47 -22 92 -49 44 -26 88 -51 96 -55 20 -9 44 -24 110 -68 295 -196
525 -412 745 -703 85 -112 205 -296 232 -355 4 -8 25 -46 48 -85 22 -38 58
-110 80 -160 21 -49 45 -99 52 -110 7 -11 13 -27 13 -36 0 -9 7 -22 15 -29 8
-7 15 -22 15 -34 0 -11 7 -34 15 -50 8 -15 15 -36 15 -45 0 -9 7 -29 15 -45 8
-15 15 -35 15 -43 0 -8 6 -29 14 -46 29 -67 49 -134 50 -172 l1 -40 -70 1
c-38 0 -98 4 -132 8 -38 5 -63 4 -63 -1 0 -6 61 -72 136 -149 131 -134 308
-342 360 -425 15 -24 24 -51 22 -67 -3 -23 -9 -28 -38 -31 -45 -4 -336 27
-375 40 -16 6 -45 15 -64 19 -18 5 -38 13 -44 19 -6 6 -18 11 -26 11 -17 0
-104 33 -166 63 -146 70 -203 110 -241 167 -21 32 -25 48 -22 87 3 26 11 64
18 83 24 65 60 170 63 184 3 15 -33 19 -57 8 -131 -65 -240 -86 -445 -84 -172
2 -281 15 -393 48 -26 8 -56 14 -66 14 -11 0 -42 7 -68 15 -82 24 -260 56
-278 49 -20 -8 -21 -24 -1 -24 8 0 72 -30 142 -66 130 -66 253 -153 253 -178
0 -15 -78 -46 -114 -46 -12 0 -30 -7 -40 -15 -11 -8 -26 -15 -33 -15 -12 0
-265 -166 -332 -219 -44 -34 -198 -125 -226 -133 -11 -4 -45 -16 -75 -28 -30
-12 -73 -26 -95 -31 -22 -5 -49 -14 -60 -19 -11 -6 -40 -14 -65 -20 -25 -5
-65 -14 -90 -19 -175 -41 -345 -51 -426 -26 -27 8 -57 15 -67 15 -18 0 -54 14
-127 48 -58 28 -163 140 -194 207 -15 33 -31 68 -37 78 -6 11 -15 42 -20 70
-5 29 -14 75 -20 102 -16 74 -12 491 6 590 86 482 63 975 -61 1273 -8 18 -14
41 -14 50 0 10 -7 27 -15 38 -8 10 -15 26 -15 34 0 8 -7 28 -15 44 -8 15 -15
33 -15 39 0 5 -8 28 -19 51 -38 83 -51 117 -51 130 0 8 -7 19 -15 26 -8 7 -15
19 -15 27 0 8 -7 30 -16 49 -24 50 -12 79 40 103 24 10 59 22 77 26 18 4 40
11 49 16 20 10 107 38 150 48 35 8 85 20 178 42 58 14 210 37 317 49 123 13
531 3 638 -16z m-1941 -599 c9 -55 9 -390 -1 -445 -5 -25 -14 -67 -21 -95 -6
-27 -18 -75 -25 -105 -7 -30 -18 -75 -25 -100 -6 -25 -15 -67 -20 -93 -5 -27
-13 -54 -18 -60 -5 -7 -12 -23 -15 -37 -7 -30 -33 -104 -52 -145 -7 -16 -34
-74 -59 -128 -25 -53 -46 -101 -46 -106 0 -5 -6 -22 -14 -38 -21 -44 -42 -90
-86 -197 -23 -54 -45 -106 -49 -115 -35 -73 -63 -148 -91 -241 -12 -41 -25
-82 -29 -90 -21 -41 -82 -375 -81 -445 0 -41 28 -260 41 -315 6 -25 14 -68 20
-96 5 -28 16 -64 24 -80 8 -16 15 -37 15 -46 0 -9 4 -19 9 -22 5 -3 12 -18 15
-33 8 -31 37 -93 67 -138 10 -16 22 -37 26 -45 55 -115 264 -342 462 -500 51
-41 98 -80 105 -85 6 -6 36 -30 66 -55 88 -71 90 -83 23 -100 -27 -6 -75 -18
-108 -27 -33 -8 -82 -19 -110 -25 -27 -5 -75 -16 -106 -24 -30 -8 -99 -14
-152 -14 -89 0 -97 -2 -108 -22 -11 -20 2 -35 177 -208 288 -282 422 -397 599
-515 104 -69 311 -180 410 -221 17 -6 47 -19 68 -28 21 -9 45 -16 53 -16 9 0
30 -6 47 -14 100 -45 400 -89 550 -80 81 5 106 4 112 -6 5 -8 10 -102 12 -209
3 -196 16 -294 49 -368 8 -17 14 -54 14 -82 0 -28 6 -65 14 -83 20 -48 37
-115 45 -179 3 -31 11 -63 17 -70 48 -62 67 -419 29 -536 -11 -32 -32 -77 -47
-101 -15 -24 -28 -47 -28 -51 0 -14 -88 -101 -102 -101 -8 0 -31 36 -52 83
-70 151 -84 182 -111 242 -75 169 -173 351 -234 430 -59 78 -84 105 -93 99 -5
-3 -8 -64 -8 -136 0 -83 -6 -156 -16 -202 -20 -87 -82 -275 -98 -296 -12 -16
-32 -52 -88 -160 -51 -98 -210 -250 -263 -250 -27 0 -75 36 -75 56 0 9 -26 58
-57 110 -32 52 -63 102 -68 112 -58 98 -81 97 -47 -3 19 -56 41 -180 53 -305
6 -69 15 -159 20 -200 24 -219 23 -393 -4 -403 -7 -2 -55 6 -107 19 -55 14
-98 20 -104 14 -5 -5 11 -39 37 -82 67 -106 130 -206 147 -233 74 -116 122
-198 143 -248 9 -20 23 -52 31 -70 8 -17 17 -71 20 -118 3 -47 10 -98 16 -113
13 -34 13 -131 0 -155 -5 -10 -13 -45 -19 -77 -25 -156 -158 -337 -333 -454
-49 -33 -92 -60 -95 -60 -3 0 -19 -6 -36 -14 -91 -41 -132 -56 -151 -56 -11 0
-43 -7 -70 -15 -64 -19 -280 -20 -333 -2 -82 29 -141 47 -158 47 -9 0 -31 6
-48 14 -18 7 -59 23 -92 36 -33 12 -74 28 -92 36 -17 8 -35 14 -40 14 -17 0
-370 185 -394 206 -8 8 -18 14 -22 14 -10 0 -180 125 -232 171 -108 95 -230
228 -290 315 -22 32 -57 77 -77 99 -20 22 -40 53 -43 68 -7 26 -10 29 -36 31
-7 1 -21 -24 -32 -54 -28 -79 -36 -350 -13 -439 9 -35 16 -70 16 -79 0 -9 6
-29 14 -44 8 -15 17 -41 21 -57 4 -17 13 -45 22 -62 8 -17 12 -40 9 -54 -10
-40 -51 -32 -138 28 -122 84 -185 183 -205 323 -6 49 23 229 43 261 8 12 14
29 14 36 0 17 66 145 86 168 8 8 14 19 14 23 0 18 155 197 218 253 76 67 147
123 155 123 3 0 26 14 50 30 25 17 49 30 53 30 5 0 23 7 39 16 61 32 104 43
115 29 12 -15 5 -83 -15 -135 -7 -19 -16 -68 -20 -107 -6 -63 -5 -73 9 -73 8
0 20 9 26 21 36 66 150 159 196 159 26 0 33 -34 23 -111 -14 -97 -14 -155 -1
-264 15 -122 42 -198 102 -290 11 -16 24 -40 29 -52 6 -12 20 -27 32 -34 19
-10 21 -9 15 6 -3 9 -8 35 -11 58 -3 23 -12 67 -20 97 -40 159 -61 636 -47
1065 6 171 15 335 22 365 25 122 32 168 39 245 4 44 12 89 18 100 6 11 13 36
17 56 6 33 40 79 50 68 6 -5 35 -85 46 -124 4 -16 13 -43 18 -60 32 -96 61
-219 73 -315 5 -41 14 -91 19 -110 14 -51 12 -261 -5 -368 -14 -95 -12 -122 9
-122 6 0 90 39 186 86 96 48 189 92 205 100 17 7 51 22 78 33 119 52 137 63
129 76 -7 14 -78 65 -90 65 -17 0 -201 177 -213 204 -5 12 -18 35 -29 51 -39
60 -60 112 -81 205 -29 129 -29 258 0 322 11 26 21 49 21 52 0 14 67 114 95
141 39 40 97 75 123 75 11 0 23 4 27 9 12 20 110 23 181 6 73 -18 235 -79 269
-102 23 -16 55 -17 55 -3 0 26 -103 164 -207 277 -43 47 -130 128 -193 181
-63 54 -122 104 -130 112 -9 8 -47 40 -85 71 -78 63 -241 226 -279 279 -14 19
-29 40 -34 45 -17 21 -78 132 -96 175 -10 25 -23 56 -28 70 -29 71 -56 224
-66 376 -5 85 -10 109 -22 111 -15 2 -106 -99 -122 -134 -5 -10 -17 -31 -28
-48 -24 -38 -62 -116 -85 -175 -9 -25 -23 -60 -31 -78 -8 -18 -14 -40 -14 -50
0 -9 -6 -37 -14 -62 -17 -52 -40 -170 -56 -285 -30 -210 -40 -273 -49 -310 -6
-22 -11 -59 -11 -81 0 -23 -7 -61 -15 -84 -8 -23 -15 -57 -15 -74 0 -17 -9
-51 -21 -75 -29 -65 -39 -48 -74 119 -7 36 -18 83 -24 105 -6 22 -11 60 -11
85 0 25 -7 80 -15 123 -31 163 -8 447 51 613 15 44 31 97 35 119 24 125 44
174 168 425 45 91 81 169 81 174 0 5 7 14 17 21 10 8 12 14 5 18 -14 10 -83
-60 -177 -178 -101 -126 -205 -232 -237 -240 -39 -10 -104 12 -123 41 -9 14
-20 52 -25 84 -5 32 -13 67 -19 78 -6 12 -11 32 -11 46 0 14 -6 43 -14 63 -7
21 -19 79 -25 128 -35 268 -62 438 -72 450 -4 6 -11 30 -15 53 -4 23 -10 42
-15 42 -5 0 -17 -30 -28 -67 -36 -124 -41 -334 -26 -1178 5 -337 4 -480 -4
-535 -7 -41 -16 -111 -21 -155 -4 -44 -13 -91 -18 -105 -6 -14 -14 -46 -17
-72 -3 -26 -10 -50 -16 -53 -5 -4 -9 -13 -9 -22 0 -16 -12 -44 -55 -133 -44
-91 -51 -102 -114 -174 -99 -115 -199 -177 -305 -190 -32 -3 -66 -11 -76 -16
-32 -17 -285 -12 -344 6 -28 9 -73 23 -101 32 -181 57 -375 247 -489 478 -27
54 -53 107 -57 116 -13 25 -37 94 -55 153 -14 49 -27 98 -57 220 -9 33 -20 76
-26 95 -6 19 -11 53 -11 75 0 22 -5 56 -11 75 -5 19 -17 113 -25 208 -20 243
-22 245 -99 67 -71 -164 -102 -461 -67 -635 39 -191 72 -317 97 -375 7 -16 28
-66 45 -110 17 -44 37 -93 45 -110 7 -16 21 -50 31 -75 9 -25 25 -63 34 -85 9
-22 24 -60 34 -85 10 -25 24 -58 31 -75 7 -16 20 -50 30 -75 9 -25 23 -59 30
-75 7 -17 16 -46 20 -65 4 -19 13 -54 21 -78 16 -50 18 -209 3 -267 -6 -22
-15 -60 -21 -83 -10 -44 -82 -175 -122 -222 -41 -49 -165 -157 -203 -178 -44
-23 -121 -62 -143 -72 -9 -4 -31 -11 -50 -14 -19 -4 -51 -15 -70 -23 -29 -14
-74 -16 -252 -16 -120 0 -218 -3 -218 -7 0 -14 109 -79 210 -126 223 -103 225
-104 423 -165 42 -13 76 -28 74 -34 -9 -25 -199 -15 -347 18 -36 8 -92 20
-125 27 -33 7 -69 17 -80 21 -11 5 -33 13 -50 18 -16 5 -55 19 -85 31 -30 12
-64 24 -75 27 -17 4 -263 125 -323 158 -44 25 -222 150 -270 191 -29 24 -57
42 -61 40 -11 -7 -36 -79 -50 -146 -11 -50 -17 -83 -50 -265 -6 -33 -11 -148
-11 -255 0 -188 6 -270 19 -270 6 0 35 69 46 110 6 24 19 55 53 127 41 84 222
262 256 250 14 -5 10 -69 -8 -121 -35 -102 -48 -219 -44 -392 3 -93 10 -189
16 -214 10 -43 23 -102 42 -203 18 -96 42 -193 56 -224 8 -17 14 -42 14 -55 1
-12 7 -34 15 -48 8 -14 14 -35 15 -47 0 -12 6 -37 14 -55 8 -18 17 -45 20 -59
3 -14 17 -38 31 -53 48 -52 44 -53 -297 -48 -202 3 -339 0 -388 -7 -41 -6
-113 -16 -160 -21 -164 -19 -306 -41 -365 -56 -154 -40 -277 -119 -311 -200
-10 -25 -20 -34 -38 -34 -22 0 -23 5 -30 77 -3 42 -6 96 -6 120 0 23 -3 43 -7
43 -12 0 -41 -79 -48 -130 -6 -41 -22 -98 -47 -175 -5 -16 -14 -46 -18 -65
-16 -63 -40 -143 -44 -148 -3 -2 -12 -2 -20 1 -14 5 -15 28 -10 164 3 87 10
187 14 223 17 125 32 205 43 240 6 19 14 53 18 75 4 22 11 54 17 70 6 17 15
50 22 75 19 79 60 201 124 370 10 25 21 57 25 71 5 14 13 34 19 45 6 10 21 46
33 79 13 33 27 64 31 69 4 6 8 16 8 24 0 7 8 32 18 55 18 42 35 82 67 167 9
25 23 56 30 70 7 14 16 40 20 57 3 18 11 35 16 38 5 4 9 14 9 23 1 9 9 35 20
57 11 22 19 45 20 51 0 7 7 25 15 40 8 16 15 36 15 45 0 9 7 30 15 45 8 16 15
38 15 49 1 11 7 31 15 45 8 14 14 34 15 45 0 11 7 33 15 49 8 15 15 39 15 51
0 13 5 36 11 52 6 15 17 53 24 83 8 30 21 84 30 120 9 36 23 90 30 120 33 128
38 147 51 178 8 18 14 44 14 57 0 13 6 39 14 57 8 18 25 60 38 93 12 33 36 83
52 110 32 53 102 125 122 125 6 0 17 6 23 14 16 19 117 28 176 16 28 -6 57
-12 65 -13 9 -1 17 11 21 33 10 46 28 117 42 160 6 19 14 53 17 75 4 22 13 63
20 90 6 28 18 75 25 105 36 147 57 229 70 275 7 28 21 76 29 108 9 31 23 83
32 115 8 31 21 80 29 107 7 28 20 75 29 105 20 69 44 170 56 235 12 69 30 134
46 173 8 18 14 44 14 57 0 13 13 39 28 57 33 38 52 95 44 133 -2 14 0 36 6 48
5 12 20 51 31 87 12 36 27 79 32 95 6 17 15 46 19 65 8 33 14 53 45 140 17 45
54 139 65 165 5 11 18 43 30 70 11 28 27 62 35 77 8 14 15 31 15 38 0 14 84
186 155 315 30 55 58 107 62 115 4 8 19 33 33 55 15 22 59 90 98 150 72 111
95 143 129 180 10 11 31 38 47 60 17 22 32 42 36 45 3 3 28 34 55 69 86 110
348 359 492 468 75 57 139 103 142 103 3 0 18 11 33 25 15 14 38 30 50 36 23
10 49 25 103 59 17 10 68 37 115 60 47 22 93 45 102 51 42 22 62 -3 39 -49 -4
-9 -16 -35 -26 -57 -9 -22 -21 -47 -26 -55 -7 -14 -29 -58 -58 -120 -6 -14
-23 -45 -37 -70 -77 -131 -88 -152 -165 -315 -23 -50 -45 -103 -49 -120 -8
-28 -14 -47 -41 -127 -11 -33 -23 -91 -32 -160 -5 -35 -5 -36 14 -20 11 9 29
37 40 62 65 141 156 321 180 358 16 24 29 45 29 48 0 3 46 82 102 177 91 153
148 233 263 372 38 45 147 181 187 233 21 27 256 278 304 326 185 181 304 293
364 341 41 32 81 66 90 75 31 30 194 155 286 220 44 30 81 57 84 60 23 24 123
81 137 78 22 -4 23 -50 4 -148 -6 -36 -17 -90 -22 -120 -18 -92 -22 -157 -11
-164 6 -3 14 4 18 16 4 13 10 25 14 28 4 3 13 17 21 32 109 214 331 555 445
684 29 34 73 86 96 115 23 30 47 59 53 65 21 23 61 71 99 119 66 84 438 446
455 443 10 -2 18 -19 23 -43z m3143 -2280 c123 -24 169 -34 230 -49 33 -9 87
-22 120 -30 33 -7 73 -19 88 -25 16 -6 39 -11 52 -11 14 0 39 -6 57 -14 49
-20 98 -37 141 -47 21 -5 45 -13 55 -18 9 -5 53 -20 97 -34 126 -41 148 -49
177 -63 14 -8 34 -14 45 -14 10 0 27 -7 37 -15 11 -8 29 -15 40 -15 12 0 30
-7 40 -15 11 -8 26 -15 33 -15 8 0 33 -8 56 -18 23 -10 62 -26 87 -36 25 -10
53 -22 62 -27 10 -5 36 -15 58 -23 35 -12 40 -12 40 1 0 8 -11 29 -25 47 -29
37 -32 71 -9 80 9 3 120 6 248 6 171 0 246 -4 288 -15 31 -8 94 -17 140 -20
78 -6 119 -15 228 -51 25 -8 53 -14 62 -14 9 0 29 -6 45 -14 15 -8 46 -23 68
-33 94 -43 211 -139 285 -233 81 -103 135 -244 127 -330 -14 -153 -28 -250
-41 -295 -19 -65 -35 -130 -46 -180 -4 -22 -12 -53 -18 -70 -28 -82 -42 -135
-42 -152 0 -10 -6 -43 -14 -73 -27 -103 -48 -310 -42 -400 4 -47 10 -150 14
-230 4 -80 10 -149 14 -155 3 -5 2 -111 -2 -235 -8 -231 -13 -262 -64 -380
-41 -95 -163 -208 -292 -269 -38 -18 -76 -36 -84 -41 -9 -4 -31 -11 -50 -15
-19 -4 -40 -11 -46 -16 -12 -10 -94 -29 -134 -32 -24 -2 -25 1 -28 56 -2 37 3
76 14 105 15 44 23 64 58 145 8 17 17 39 20 47 3 8 10 22 15 30 5 8 19 35 31
60 13 25 70 116 127 202 90 137 117 188 98 188 -3 0 -13 -8 -23 -17 -135 -131
-311 -266 -402 -309 -185 -88 -182 -88 -207 -41 -16 28 -18 66 -21 299 l-3
266 -40 4 c-22 2 -44 -1 -49 -7 -9 -12 -30 -365 -30 -522 0 -136 -5 -156 -35
-149 -29 7 -174 104 -239 159 -27 23 -69 69 -95 102 -25 33 -71 87 -101 120
-31 33 -82 94 -115 135 -70 90 -103 125 -111 118 -4 -5 18 -52 46 -98 38 -62
99 -174 116 -215 45 -104 54 -132 70 -220 15 -85 15 -94 -2 -165 -21 -85 -50
-134 -97 -164 -44 -29 -175 -28 -227 0 -124 69 -242 188 -416 419 -165 218
-197 288 -198 433 -1 113 13 160 80 263 39 61 65 112 99 194 42 101 56 262 31
360 -8 33 -17 71 -19 85 -5 27 -14 51 -64 185 -19 50 -41 102 -49 117 -8 14
-14 35 -14 47 0 17 -25 41 -43 41 -4 0 -199 -390 -222 -445 -7 -16 -18 -43
-25 -60 -21 -49 -81 -217 -90 -255 -23 -93 -33 -129 -46 -170 -8 -25 -14 -64
-14 -87 0 -23 -7 -77 -15 -120 -19 -98 -19 -210 0 -288 8 -33 14 -78 15 -101
0 -22 7 -63 15 -90 8 -27 15 -62 15 -79 1 -50 36 -169 80 -270 22 -52 93 -193
110 -220 11 -16 24 -41 30 -54 6 -13 23 -42 39 -65 129 -186 146 -232 81 -230
-117 3 -343 144 -440 273 -52 69 -80 96 -80 78 0 -19 0 -18 56 -131 42 -85
111 -171 180 -223 55 -42 173 -103 200 -103 11 0 25 -5 31 -11 11 -11 93 -24
235 -37 112 -10 111 -8 116 -207 4 -134 2 -173 -11 -208 -9 -23 -19 -64 -23
-91 -14 -98 -100 -218 -209 -290 -65 -43 -263 -143 -428 -216 -72 -32 -97 -7
-97 97 0 43 -28 195 -45 243 -7 19 -18 51 -24 70 -7 19 -17 52 -22 72 -16 68
-155 321 -237 436 -45 62 -82 116 -82 120 0 14 -80 95 -87 89 -6 -7 93 -214
107 -222 4 -3 11 -17 15 -32 3 -15 20 -47 36 -71 16 -23 29 -47 29 -52 0 -4 6
-21 14 -37 8 -15 22 -48 31 -73 9 -25 23 -58 29 -75 27 -62 82 -265 96 -350
26 -154 -15 -394 -78 -457 l-21 -21 -19 44 c-11 24 -30 73 -42 109 -26 78 -29
84 -75 185 -64 139 -94 193 -218 402 -67 112 -127 212 -132 221 -6 9 -29 45
-53 80 -23 35 -42 65 -42 68 0 2 -20 32 -43 67 -84 120 -247 412 -247 441 0 8
-6 27 -14 43 -33 67 -40 97 -61 265 -9 66 11 240 31 280 8 15 14 36 14 47 0
31 129 259 168 299 9 10 40 47 69 82 55 70 313 313 378 357 61 41 109 89 101
102 -5 7 -42 11 -101 11 -52 0 -120 7 -152 15 -31 8 -80 15 -108 15 -28 0 -77
7 -108 15 -32 8 -74 15 -94 15 -19 0 -65 7 -102 15 -36 8 -97 19 -136 24 -134
18 -230 32 -305 42 -140 20 -416 23 -510 6 -47 -9 -105 -18 -130 -21 -25 -3
-90 -20 -145 -37 -55 -18 -107 -34 -115 -36 -26 -7 11 -23 56 -23 23 0 58 -7
77 -15 20 -8 54 -15 75 -15 22 0 56 -7 75 -15 20 -8 50 -15 68 -15 27 0 76
-10 204 -41 87 -21 121 -31 140 -40 11 -5 38 -13 60 -18 22 -5 65 -19 95 -31
30 -12 66 -25 80 -30 14 -5 50 -18 80 -30 30 -12 69 -26 87 -31 18 -5 45 -16
60 -24 15 -8 36 -15 45 -15 9 0 19 -4 23 -9 3 -5 19 -12 35 -16 17 -4 30 -13
30 -21 0 -17 -37 -34 -140 -64 -41 -12 -88 -27 -105 -33 -41 -16 -486 -17
-506 -1 -8 6 -32 15 -54 18 -77 14 -150 40 -265 95 -36 17 -68 31 -72 31 -8 0
-126 76 -173 113 -13 9 -26 17 -30 17 -25 0 -293 272 -359 365 -18 25 1 42 55
49 29 4 60 11 70 17 31 16 541 39 929 41 559 3 706 12 935 58 33 7 76 18 95
25 19 8 49 16 65 20 51 11 217 96 275 141 168 129 259 283 293 495 12 78 -2
262 -27 349 -8 30 -21 75 -27 100 -17 66 -55 151 -105 235 -16 27 -73 94 -127
148 -107 108 -107 106 -60 179 24 39 83 83 143 106 81 31 381 35 525 7z m3223
-2220 c15 -8 50 -24 77 -35 93 -39 221 -102 388 -189 81 -43 85 -46 162 -96
33 -22 68 -44 77 -50 9 -5 38 -23 65 -39 97 -58 194 -132 297 -226 34 -30 88
-77 121 -105 33 -27 62 -52 65 -55 3 -3 37 -30 75 -59 113 -88 116 -96 48
-131 -27 -14 -55 -30 -63 -35 -8 -6 -42 -19 -75 -29 -33 -9 -76 -22 -95 -28
-19 -6 -66 -17 -105 -25 -38 -8 -104 -20 -145 -29 -138 -27 -233 -33 -586 -33
-401 -1 -384 -5 -368 77 l9 47 170 8 c386 17 624 45 690 81 17 9 35 16 42 16
20 0 83 41 83 54 0 16 -21 36 -38 36 -8 0 -34 14 -59 30 -24 17 -49 30 -56 30
-28 0 -336 164 -376 201 -14 13 -42 32 -61 42 -96 53 -261 202 -291 263 -11
24 -33 53 -48 63 -42 30 -121 196 -106 221 9 15 73 12 103 -5z m-1480 -1368
c10 -9 23 -17 28 -17 5 0 28 -18 50 -39 132 -121 190 -288 203 -576 9 -202
-13 -447 -48 -538 -6 -16 -11 -41 -11 -55 0 -25 -28 -118 -50 -167 -5 -11 -12
-31 -15 -45 -4 -14 -28 -67 -53 -118 -49 -100 -48 -112 8 -112 36 0 155 -29
220 -54 76 -29 135 -91 149 -156 23 -107 -30 -237 -169 -419 -62 -80 -249
-306 -287 -346 -7 -8 -13 -18 -13 -24 0 -11 35 5 105 50 22 15 51 30 65 34 14
4 34 14 45 21 26 18 75 18 75 0 0 -21 -112 -157 -156 -190 -21 -17 -41 -32
-44 -35 -45 -50 -243 -134 -355 -151 -33 -5 -91 -14 -130 -21 -76 -13 -272 -7
-371 10 -32 6 -84 15 -114 20 -74 13 -248 59 -287 77 -17 8 -38 14 -47 14 -15
0 -56 18 -223 96 -39 19 -74 34 -78 34 -3 0 -11 5 -18 11 -7 6 -50 34 -96 64
-140 89 -242 205 -298 336 -59 139 -60 335 -1 469 42 97 112 198 163 235 15
11 47 35 70 53 51 37 173 102 195 102 8 0 33 7 55 15 55 19 220 20 275 0 23
-8 52 -15 64 -15 11 -1 39 -9 61 -20 22 -11 45 -19 52 -20 14 0 144 -62 185
-88 90 -57 168 -102 176 -102 5 0 15 -7 22 -15 12 -14 50 -21 50 -9 0 3 -11
20 -24 37 -12 18 -39 66 -58 107 -33 70 -42 91 -81 195 -74 201 -93 733 -31
872 8 17 14 41 14 53 0 12 7 36 16 53 9 18 20 39 24 48 41 85 74 132 140 199
43 44 84 80 91 80 7 0 20 6 28 13 17 15 90 43 131 51 14 2 82 3 152 2 104 -1
130 -5 146 -19z m1140 -1252 c2 -16 10 -38 18 -49 8 -11 14 -29 14 -39 0 -10
6 -31 14 -45 8 -15 22 -47 31 -72 19 -47 41 -100 69 -162 9 -20 16 -41 16 -46
0 -6 7 -24 15 -41 8 -17 22 -45 30 -62 8 -17 15 -37 15 -44 0 -7 6 -26 14 -42
8 -15 22 -48 32 -73 10 -25 26 -64 36 -87 10 -23 18 -46 18 -52 0 -5 7 -23 15
-40 8 -17 22 -45 30 -62 8 -17 15 -38 15 -48 0 -9 7 -26 15 -37 8 -10 15 -28
15 -40 0 -11 7 -29 15 -40 8 -10 15 -27 15 -37 0 -11 6 -31 14 -45 7 -15 23
-54 36 -87 12 -33 26 -69 31 -80 5 -11 13 -33 18 -50 5 -16 19 -55 31 -85 12
-30 25 -66 30 -80 5 -14 27 -72 50 -130 23 -58 44 -116 47 -130 3 -14 12 -34
19 -45 8 -11 14 -29 14 -40 0 -11 7 -29 15 -39 8 -11 15 -29 15 -41 0 -12 7
-30 15 -41 8 -10 15 -26 15 -34 0 -8 7 -28 15 -44 8 -15 15 -33 15 -38 0 -6 6
-24 14 -41 7 -18 23 -59 35 -92 12 -33 29 -72 37 -87 8 -14 14 -33 14 -41 0
-9 7 -30 16 -49 36 -73 44 -90 44 -100 0 -5 7 -24 14 -41 8 -18 31 -75 51
-127 20 -52 43 -109 51 -127 8 -17 14 -37 14 -45 0 -8 7 -23 15 -34 21 -27 18
-54 -7 -81 -20 -21 -30 -23 -122 -23 -56 0 -137 -7 -181 -15 -44 -8 -114 -14
-156 -15 l-76 0 -101 203 c-55 111 -103 209 -106 217 -3 8 -10 22 -15 30 -4 8
-22 44 -39 80 -17 36 -62 133 -102 215 -75 158 -76 161 -110 240 -12 28 -28
66 -37 85 -9 19 -22 50 -29 68 -7 18 -20 47 -28 65 -17 37 -75 189 -101 262
-9 28 -23 64 -30 80 -16 38 -34 91 -45 130 -5 17 -13 44 -18 60 -6 17 -17 55
-26 85 -8 30 -22 80 -31 110 -20 66 -32 128 -46 240 -6 47 -18 104 -25 127
-13 36 -13 51 0 125 36 197 55 290 66 313 5 11 19 45 31 75 38 97 56 129 105
195 62 82 96 95 102 40z m-7754 -105 c78 -89 74 -83 121 -174 57 -109 114
-243 107 -250 -13 -14 -64 -4 -111 20 -71 37 -153 127 -181 200 -12 32 -26 68
-31 79 -4 11 -10 57 -12 102 -7 125 13 129 107 23z m-594 -140 c83 -23 125
-44 185 -90 133 -103 224 -205 276 -309 21 -42 21 -45 5 -75 -9 -17 -43 -59
-76 -93 -32 -34 -76 -85 -96 -115 -20 -29 -47 -66 -60 -83 -51 -69 -164 -296
-164 -330 0 -7 -7 -26 -15 -41 -8 -16 -15 -43 -15 -60 0 -17 -11 -56 -24 -85
-19 -45 -24 -76 -28 -187 -4 -108 -8 -136 -22 -150 -15 -15 -41 -17 -219 -16
-196 1 -245 6 -372 38 -123 31 -161 42 -182 54 -12 6 -27 12 -32 12 -18 0
-114 70 -149 109 -35 39 -82 132 -82 163 0 10 -8 33 -17 51 -15 27 -18 55 -16
170 3 148 12 193 67 337 3 8 10 22 16 30 5 8 15 26 20 40 6 14 19 39 30 55 11
17 24 39 30 50 6 11 19 34 30 50 11 17 24 41 30 53 17 40 228 248 298 295 96
63 171 100 267 130 60 19 245 17 315 -3z m7974 -1556 c17 -7 114 -201 123
-247 3 -18 9 -37 14 -42 4 -6 12 -29 18 -50 24 -95 34 -133 46 -180 22 -83 36
-138 46 -184 5 -24 13 -49 18 -55 4 -6 12 -29 16 -51 4 -22 10 -44 14 -50 5
-5 13 -28 19 -50 40 -151 134 -329 211 -404 132 -126 281 -176 414 -137 32 9
112 18 196 21 78 3 150 9 161 15 10 5 31 10 47 10 15 1 46 7 68 15 27 10 100
17 230 20 183 5 235 -1 210 -23 -19 -18 -109 -64 -164 -84 -31 -11 -96 -35
-146 -55 -49 -19 -108 -41 -130 -50 -22 -8 -53 -21 -68 -29 -16 -8 -36 -14
-46 -14 -9 0 -26 -7 -37 -15 -10 -8 -25 -15 -32 -15 -8 0 -28 -6 -45 -14 -18
-7 -61 -24 -97 -36 -36 -12 -79 -29 -97 -36 -17 -8 -37 -14 -45 -14 -8 0 -18
-4 -23 -9 -6 -5 -26 -14 -45 -19 -42 -13 -118 -39 -145 -51 -38 -17 -220 -80
-247 -85 -16 -4 -30 -1 -35 6 -9 15 -29 84 -42 148 -25 120 -89 343 -117 407
-8 17 -14 39 -14 48 0 9 -5 26 -12 38 -6 12 -15 35 -19 52 -4 16 -17 55 -29
85 -12 30 -26 71 -32 90 -5 19 -14 40 -18 45 -5 6 -11 27 -15 48 -4 20 -11 40
-16 43 -5 3 -9 14 -9 25 0 10 -8 45 -19 76 -17 54 -26 85 -65 224 -9 31 -16
67 -16 82 0 14 -5 38 -11 54 -37 89 -65 453 -35 453 2 0 11 -3 20 -6z m-10899
-644 c28 -5 82 -14 120 -20 120 -20 234 -60 286 -102 20 -16 89 -115 89 -127
0 -5 6 -22 14 -38 20 -40 36 -91 47 -143 5 -24 14 -49 19 -54 6 -6 10 -20 10
-33 0 -12 6 -40 14 -60 8 -21 24 -83 36 -138 11 -55 28 -129 35 -165 33 -150
28 -460 -9 -565 -17 -50 -41 -55 -81 -18 -76 70 -255 228 -370 327 -44 37 -93
80 -109 94 -57 49 -377 292 -385 292 -12 0 -39 -43 -47 -76 -4 -15 -13 -39
-20 -53 -8 -14 -14 -31 -14 -38 0 -11 -8 -31 -47 -123 -45 -103 -151 -297
-208 -380 -113 -166 -129 -187 -184 -243 -89 -93 -123 -111 -207 -111 -62 1
-76 4 -120 33 -52 34 -154 160 -154 190 0 9 -4 21 -9 27 -13 13 -51 129 -51
154 0 11 -7 37 -15 58 -26 62 -41 276 -26 374 23 151 95 295 157 312 13 4 30
-1 45 -13 28 -22 31 -47 49 -375 8 -150 16 -216 26 -230 8 -11 14 -29 14 -39
0 -21 44 -99 66 -118 19 -16 34 2 34 43 0 15 7 53 15 85 18 68 21 521 5 588
-13 48 -36 180 -52 291 -11 76 -10 84 10 122 27 52 45 70 110 110 51 31 104
54 167 72 40 11 92 29 133 46 18 8 47 14 65 14 18 0 50 5 72 11 104 27 362 37
470 19z m13005 -979 c52 -5 108 -13 123 -20 16 -6 41 -11 55 -11 36 0 242
-142 347 -238 22 -21 54 -48 70 -62 77 -64 335 -360 335 -384 0 -3 13 -24 28
-48 16 -24 46 -79 67 -123 20 -44 44 -92 51 -107 8 -14 14 -34 14 -43 0 -9 6
-29 14 -43 32 -62 47 -107 56 -165 5 -34 14 -78 19 -97 15 -47 14 -167 0 -176
-13 -8 -62 41 -184 181 -43 50 -122 137 -175 195 -53 58 -148 161 -211 230
-63 68 -190 201 -283 294 -144 144 -170 167 -176 151 -15 -41 -40 -161 -40
-189 0 -16 -6 -55 -14 -85 -14 -54 -29 -192 -46 -416 -11 -149 -11 -762 0
-960 7 -127 6 -163 -4 -173 -11 -11 -29 -11 -107 2 -177 29 -369 80 -431 116
-10 6 -26 10 -35 11 -10 0 -54 20 -98 44 -44 24 -117 63 -162 86 -45 23 -92
52 -105 64 -13 11 -43 35 -68 52 -101 70 -294 286 -333 373 -4 8 -11 22 -16
30 -5 8 -18 35 -29 60 -11 25 -31 70 -45 100 -13 30 -30 75 -37 100 -6 25 -18
70 -27 100 -28 102 -52 245 -60 353 -4 63 -2 91 11 121 9 21 16 46 16 55 0 9
6 27 14 41 7 14 25 48 40 75 63 120 215 257 366 330 108 52 394 145 448 145
14 0 48 7 76 15 55 16 335 36 401 28 22 -2 83 -8 135 -12z"/>
<path d="M23733 15419 c-43 -16 -93 -206 -93 -358 0 -78 31 -242 50 -266 4 -5
11 -21 15 -35 13 -43 94 -158 142 -200 141 -124 349 -186 542 -161 225 29 415
151 549 354 18 26 32 52 32 56 0 5 7 14 15 21 8 7 15 21 15 31 0 10 9 36 21
58 20 39 19 61 -2 61 -6 0 -45 -27 -87 -59 -42 -33 -88 -64 -102 -70 -14 -6
-32 -15 -40 -20 -51 -29 -81 -41 -102 -41 -12 0 -32 -7 -42 -15 -11 -8 -28
-15 -38 -15 -9 0 -33 -8 -53 -17 -28 -13 -40 -15 -54 -6 -10 6 -55 15 -100 18
-45 4 -84 11 -86 15 -3 5 -25 18 -48 29 -24 12 -74 52 -111 89 -61 62 -81 87
-102 132 -4 8 -27 48 -51 88 -24 41 -43 76 -43 78 0 7 -53 128 -88 199 -9 19
-23 35 -32 36 -8 0 -31 1 -51 3 -19 1 -45 -1 -56 -5z"/>
<path d="M29037 19963 c-4 -3 -7 -10 -7 -14 0 -9 150 -82 210 -102 25 -8 59
-22 75 -31 17 -9 48 -16 70 -16 22 0 76 -7 120 -15 44 -8 121 -15 170 -15 50
0 119 -7 154 -14 51 -11 72 -12 100 -3 44 15 47 39 6 47 -16 4 -39 11 -50 17
-11 5 -36 17 -55 25 -19 8 -52 22 -73 31 -20 9 -56 20 -80 23 -23 4 -51 11
-62 17 -11 6 -56 14 -100 18 -44 5 -123 15 -175 23 -96 16 -291 22 -303 9z"/>
<path d="M26850 17526 c0 -8 5 -18 10 -21 6 -3 10 3 10 14 0 12 -4 21 -10 21
-5 0 -10 -6 -10 -14z"/>
<path d="M27700 15702 c0 -12 30 -61 66 -109 135 -180 292 -303 487 -381 79
-32 220 -62 290 -62 32 0 37 3 37 24 0 13 -7 30 -17 37 -9 8 -48 57 -88 109
-75 99 -188 207 -259 249 -22 14 -43 27 -46 30 -6 7 -62 34 -115 56 -81 34
-168 54 -260 61 -92 7 -95 6 -95 -14z"/>
<path d="M31295 12818 c-33 -16 -67 -34 -75 -39 -8 -5 -28 -15 -45 -22 -34
-16 -119 -81 -167 -130 -164 -163 -226 -372 -179 -597 32 -154 76 -255 157
-361 112 -146 329 -289 440 -289 41 0 41 18 -1 115 -43 98 -64 175 -76 280 -5
44 -14 93 -19 108 -5 15 -12 121 -16 235 -6 177 -4 215 10 264 9 31 16 78 16
105 1 26 9 66 20 88 11 22 20 56 20 75 0 19 7 46 15 60 8 14 14 51 15 83 0 56
-1 57 -27 56 -16 -1 -55 -15 -88 -31z"/>
<path d="M36050 24446 c0 -8 5 -18 10 -21 6 -3 10 1 10 9 0 8 -4 18 -10 21 -5
3 -10 -1 -10 -9z"/>
<path d="M24102 24415 c0 -16 2 -22 5 -12 2 9 2 23 0 30 -3 6 -5 -1 -5 -18z"/>
<path d="M36080 24396 c0 -8 5 -18 10 -21 6 -3 10 1 10 9 0 8 -4 18 -10 21 -5
3 -10 -1 -10 -9z"/>
<path d="M36110 24338 c0 -9 5 -20 11 -23 17 -11 20 0 4 21 -13 17 -14 17 -15
2z"/>
<path d="M36144 24287 c3 -10 6 -23 6 -28 0 -5 5 -9 10 -9 14 0 12 13 -6 36
-14 17 -15 17 -10 1z"/>
<path d="M36180 24213 c0 -13 5 -23 10 -23 13 0 13 11 0 30 -8 12 -10 11 -10
-7z"/>
<path d="M36210 24158 c0 -9 5 -20 10 -23 13 -8 13 5 0 25 -8 13 -10 13 -10
-2z"/>
<path d="M36240 24096 c0 -8 5 -18 10 -21 6 -3 10 1 10 9 0 8 -4 18 -10 21 -5
3 -10 -1 -10 -9z"/>
<path d="M36270 24036 c0 -8 5 -18 10 -21 6 -3 10 1 10 9 0 8 -4 18 -10 21 -5
3 -10 -1 -10 -9z"/>
<path d="M36300 23978 c0 -7 5 -20 10 -28 8 -12 10 -11 10 7 0 12 -4 25 -10
28 -5 3 -10 0 -10 -7z"/>
<path d="M36330 23918 c0 -7 5 -20 10 -28 8 -12 10 -11 10 7 0 12 -4 25 -10
28 -5 3 -10 0 -10 -7z"/>
<path d="M36360 23864 c0 -5 7 -19 15 -30 8 -10 15 -14 15 -8 0 5 -7 19 -15
30 -8 10 -15 14 -15 8z"/>
<path d="M38010 23850 c0 -5 7 -10 16 -10 8 0 12 5 9 10 -3 6 -10 10 -16 10
-5 0 -9 -4 -9 -10z"/>
<path d="M38064 23815 c11 -8 25 -15 30 -15 6 0 2 7 -8 15 -11 8 -25 15 -30
15 -6 0 -2 -7 8 -15z"/>
<path d="M36400 23786 c0 -8 5 -18 10 -21 6 -3 10 1 10 9 0 8 -4 18 -10 21 -5
3 -10 -1 -10 -9z"/>
<path d="M38110 23791 c0 -5 7 -11 15 -15 8 -3 15 -1 15 3 0 5 -7 11 -15 15
-8 3 -15 1 -15 -3z"/>
<path d="M38165 23750 c3 -5 10 -10 16 -10 5 0 9 5 9 10 0 6 -7 10 -16 10 -8
0 -12 -4 -9 -10z"/>
<path d="M36430 23726 c0 -8 5 -18 10 -21 6 -3 10 1 10 9 0 8 -4 18 -10 21 -5
3 -10 -1 -10 -9z"/>
<path d="M38210 23726 c0 -2 7 -7 16 -10 8 -3 12 -2 9 4 -6 10 -25 14 -25 6z"/>
<path d="M36460 23663 c0 -4 5 -15 10 -23 8 -13 10 -13 10 2 0 9 -4 20 -10 23
-5 3 -10 3 -10 -2z"/>
<path d="M36491 23593 c0 -5 4 -17 9 -28 8 -18 9 -17 9 8 1 15 -3 27 -9 27 -5
0 -10 -3 -9 -7z"/>
<path d="M36527 23510 c3 -11 9 -20 13 -20 5 0 6 9 3 20 -3 11 -9 20 -13 20
-5 0 -6 -9 -3 -20z"/>
<path d="M36560 23443 c0 -13 5 -23 10 -23 13 0 13 11 0 30 -8 12 -10 11 -10
-7z"/>
<path d="M36590 23376 c0 -8 5 -18 10 -21 6 -3 10 1 10 9 0 8 -4 18 -10 21 -5
3 -10 -1 -10 -9z"/>
<path d="M36620 23306 c0 -8 5 -18 10 -21 6 -3 10 1 10 9 0 8 -4 18 -10 21 -5
3 -10 -1 -10 -9z"/>
<path d="M36651 23243 c0 -4 4 -17 9 -28 8 -19 9 -19 9 2 1 12 -3 25 -9 28 -5
3 -10 3 -9 -2z"/>
<path d="M36680 23173 c0 -5 5 -15 10 -23 8 -12 10 -11 10 8 0 12 -4 22 -10
22 -5 0 -10 -3 -10 -7z"/>
<path d="M36722 23080 c0 -14 2 -19 5 -12 2 6 2 18 0 25 -3 6 -5 1 -5 -13z"/>
<path d="M36750 23003 c0 -13 5 -23 10 -23 13 0 13 11 0 30 -8 12 -10 11 -10
-7z"/>
<path d="M36780 22933 c0 -12 5 -25 10 -28 13 -8 13 15 0 35 -8 12 -10 11 -10
-7z"/>
<path d="M36810 22846 c0 -8 5 -18 10 -21 6 -3 10 1 10 9 0 8 -4 18 -10 21 -5
3 -10 -1 -10 -9z"/>
<path d="M36840 22778 c0 -7 5 -20 10 -28 8 -12 10 -11 10 7 0 12 -4 25 -10
28 -5 3 -10 0 -10 -7z"/>
<path d="M36877 22680 c3 -11 7 -20 9 -20 2 0 4 9 4 20 0 11 -4 20 -9 20 -5 0
-7 -9 -4 -20z"/>
<path d="M36912 22600 c0 -14 2 -19 5 -12 2 6 2 18 0 25 -3 6 -5 1 -5 -13z"/>
<path d="M36940 22523 c0 -13 5 -23 10 -23 13 0 13 11 0 30 -8 12 -10 11 -10
-7z"/>
<path d="M36970 22433 c0 -12 5 -25 10 -28 13 -8 13 15 0 35 -8 12 -10 11 -10
-7z"/>
<path d="M37000 22336 c0 -8 5 -18 10 -21 6 -3 10 1 10 9 0 8 -4 18 -10 21 -5
3 -10 -1 -10 -9z"/>
<path d="M37030 22248 c0 -7 5 -20 10 -28 8 -12 10 -11 10 7 0 12 -4 25 -10
28 -5 3 -10 0 -10 -7z"/>
<path d="M37072 22140 c0 -14 2 -19 5 -12 2 6 2 18 0 25 -3 6 -5 1 -5 -13z"/>
<path d="M37100 22044 c0 -14 4 -23 9 -20 5 3 7 15 4 26 -7 28 -13 25 -13 -6z"/>
<path d="M37130 21954 c0 -14 4 -23 9 -20 5 3 7 15 4 26 -7 28 -13 25 -13 -6z"/>
<path d="M37160 21853 c0 -12 5 -25 10 -28 13 -8 13 15 0 35 -8 12 -10 11 -10
-7z"/>
<path d="M37422 20865 c0 -16 2 -22 5 -12 2 9 2 23 0 30 -3 6 -5 -1 -5 -18z"/>
<path d="M37452 20730 c0 -19 2 -27 5 -17 2 9 2 25 0 35 -3 9 -5 1 -5 -18z"/>
<path d="M37482 20560 c0 -19 2 -27 5 -17 2 9 2 25 0 35 -3 9 -5 1 -5 -18z"/>
<path d="M37512 20385 c0 -16 2 -22 5 -12 2 9 2 23 0 30 -3 6 -5 -1 -5 -18z"/>
<path d="M37540 20213 c0 -12 5 -25 10 -28 13 -8 13 15 0 35 -8 12 -10 11 -10
-7z"/>
<path d="M37582 20005 c0 -16 2 -22 5 -12 2 9 2 23 0 30 -3 6 -5 -1 -5 -18z"/>
<path d="M37613 19755 c0 -22 2 -30 4 -17 2 12 2 30 0 40 -3 9 -5 -1 -4 -23z"/>
<path d="M37643 19510 c0 -25 2 -35 4 -22 2 12 2 32 0 45 -2 12 -4 2 -4 -23z"/>
<path d="M37673 19155 c0 -27 2 -38 4 -22 2 15 2 37 0 50 -2 12 -4 0 -4 -28z"/>
<path d="M17823 19145 c0 -22 2 -30 4 -17 2 12 2 30 0 40 -3 9 -5 -1 -4 -23z"/>
<path d="M17852 18955 c0 -16 2 -22 5 -12 2 9 2 23 0 30 -3 6 -5 -1 -5 -18z"/>
<path d="M17880 18835 c0 -8 4 -15 10 -15 5 0 7 7 4 15 -4 8 -8 15 -10 15 -2
0 -4 -7 -4 -15z"/>
<path d="M37703 18680 c0 -36 2 -50 4 -32 2 17 2 47 0 65 -2 17 -4 3 -4 -33z"/>
<path d="M17921 18704 c0 -11 3 -14 6 -6 3 7 2 16 -1 19 -3 4 -6 -2 -5 -13z"/>
<path d="M11193 18525 c0 -27 2 -38 4 -22 2 15 2 37 0 50 -2 12 -4 0 -4 -28z"/>
<path d="M32792 17875 c0 -16 2 -22 5 -12 2 9 2 23 0 30 -3 6 -5 -1 -5 -18z"/>
<path d="M32822 17765 c0 -16 2 -22 5 -12 2 9 2 23 0 30 -3 6 -5 -1 -5 -18z"/>
<path d="M11194 17655 c0 -49 1 -71 3 -48 2 23 2 64 0 90 -2 26 -3 8 -3 -42z"/>
<path d="M17092 17665 c0 -16 2 -22 5 -12 2 9 2 23 0 30 -3 6 -5 -1 -5 -18z"/>
<path d="M32852 17660 c0 -14 2 -19 5 -12 2 6 2 18 0 25 -3 6 -5 1 -5 -13z"/>
<path d="M17121 17563 c-1 -12 4 -25 9 -28 12 -7 12 2 0 30 -8 19 -9 19 -9 -2z"/>
<path d="M32880 17550 c0 -11 4 -20 9 -20 5 0 7 9 4 20 -3 11 -7 20 -9 20 -2
0 -4 -9 -4 -20z"/>
<path d="M17150 17486 c0 -8 5 -18 10 -21 6 -3 10 1 10 9 0 8 -4 18 -10 21 -5
3 -10 -1 -10 -9z"/>
<path d="M32910 17448 c0 -7 5 -20 10 -28 8 -12 10 -11 10 7 0 12 -4 25 -10
28 -5 3 -10 0 -10 -7z"/>
<path d="M17186 17415 c4 -8 10 -15 15 -15 4 0 6 7 3 15 -4 8 -10 15 -15 15
-4 0 -6 -7 -3 -15z"/>
<path d="M17221 17363 c-1 -13 4 -23 9 -23 6 0 10 -6 10 -14 0 -17 18 -31 27
-22 4 3 -3 16 -14 29 -11 12 -23 29 -26 37 -4 10 -6 7 -6 -7z"/>
<path d="M32947 17320 c3 -11 7 -20 9 -20 2 0 4 9 4 20 0 11 -4 20 -9 20 -5 0
-7 -9 -4 -20z"/>
<path d="M17275 17280 c3 -5 8 -10 11 -10 2 0 4 5 4 10 0 6 -5 10 -11 10 -5 0
-7 -4 -4 -10z"/>
<path d="M17310 17242 c0 -15 116 -132 131 -132 6 0 -12 21 -40 46 -28 25 -60
57 -71 71 -11 14 -20 21 -20 15z"/>
<path d="M32977 17233 c-3 -5 -1 -17 4 -28 7 -17 8 -17 8 8 1 27 -4 34 -12 20z"/>
<path d="M33012 17105 c0 -16 2 -22 5 -12 2 9 2 23 0 30 -3 6 -5 -1 -5 -18z"/>
<path d="M11222 17075 c0 -16 2 -22 5 -12 2 9 2 23 0 30 -3 6 -5 -1 -5 -18z"/>
<path d="M17481 17075 c13 -13 31 -25 39 -24 9 0 4 9 -15 24 -39 32 -54 32
-24 0z"/>
<path d="M17550 17030 c8 -5 20 -10 25 -10 6 0 3 5 -5 10 -8 5 -19 10 -25 10
-5 0 -3 -5 5 -10z"/>
<path d="M33042 16995 c0 -16 2 -22 5 -12 2 9 2 23 0 30 -3 6 -5 -1 -5 -18z"/>
<path d="M17595 17000 c3 -5 13 -10 21 -10 8 0 12 5 9 10 -3 6 -13 10 -21 10
-8 0 -12 -4 -9 -10z"/>
<path d="M17670 16969 c0 -5 9 -9 20 -9 11 0 20 2 20 4 0 2 -9 6 -20 9 -11 3
-20 1 -20 -4z"/>
<path d="M17748 16933 c7 -3 16 -2 19 1 4 3 -2 6 -13 5 -11 0 -14 -3 -6 -6z"/>
<path d="M17823 16903 c9 -2 23 -2 30 0 6 3 -1 5 -18 5 -16 0 -22 -2 -12 -5z"/>
<path d="M33071 16888 c-1 -16 4 -28 9 -28 12 0 12 8 0 35 -8 18 -9 17 -9 -7z"/>
<path d="M17958 16873 c6 -2 18 -2 25 0 6 3 1 5 -13 5 -14 0 -19 -2 -12 -5z"/>
<path d="M33100 16778 c0 -7 5 -20 10 -28 8 -12 10 -11 10 7 0 12 -4 25 -10
28 -5 3 -10 0 -10 -7z"/>
<path d="M11250 16683 c0 -5 5 -15 10 -23 8 -12 10 -11 10 8 0 12 -4 22 -10
22 -5 0 -10 -3 -10 -7z"/>
<path d="M33142 16650 c0 -14 2 -19 5 -12 2 6 2 18 0 25 -3 6 -5 1 -5 -13z"/>
<path d="M33172 16545 c0 -16 2 -22 5 -12 2 9 2 23 0 30 -3 6 -5 -1 -5 -18z"/>
<path d="M11293 16425 c0 -22 2 -30 4 -17 2 12 2 30 0 40 -3 9 -5 -1 -4 -23z"/>
<path d="M33202 16435 c0 -16 2 -22 5 -12 2 9 2 23 0 30 -3 6 -5 -1 -5 -18z"/>
<path d="M33232 16330 c0 -14 2 -19 5 -12 2 6 2 18 0 25 -3 6 -5 1 -5 -13z"/>
<path d="M33261 16223 c-1 -12 4 -25 9 -28 12 -7 12 2 0 30 -8 19 -9 19 -9 -2z"/>
<path d="M11323 16180 c0 -25 2 -35 4 -22 2 12 2 32 0 45 -2 12 -4 2 -4 -23z"/>
<path d="M15786 16176 c3 -9 11 -16 16 -16 13 0 5 23 -10 28 -7 2 -10 -2 -6
-12z"/>
<path d="M15817 16132 c3 -12 9 -25 14 -28 14 -8 11 10 -6 32 -13 18 -14 18
-8 -4z"/>
<path d="M33290 16118 c0 -7 5 -20 10 -28 8 -12 10 -11 10 7 0 12 -4 25 -10
28 -5 3 -10 0 -10 -7z"/>
<path d="M15850 16076 c0 -8 5 -18 10 -21 6 -3 10 1 10 9 0 8 -4 18 -10 21 -5
3 -10 -1 -10 -9z"/>
<path d="M15880 16028 c0 -9 5 -20 11 -23 17 -11 20 0 4 21 -13 17 -14 17 -15
2z"/>
<path d="M33320 16003 c0 -5 5 -15 10 -23 8 -12 10 -11 10 8 0 12 -4 22 -10
22 -5 0 -10 -3 -10 -7z"/>
<path d="M11352 15960 c0 -19 2 -27 5 -17 2 9 2 25 0 35 -3 9 -5 1 -5 -18z"/>
<path d="M15910 15987 c0 -14 43 -87 51 -87 13 0 11 6 -17 47 -29 43 -34 49
-34 40z"/>
<path d="M33362 15880 c0 -19 2 -27 5 -17 2 9 2 25 0 35 -3 9 -5 1 -5 -18z"/>
<path d="M15977 15873 c3 -10 11 -24 17 -32 13 -17 32 -50 47 -81 7 -16 13
-20 16 -12 3 7 -1 20 -8 28 -15 19 -34 50 -48 81 -12 27 -33 41 -24 16z"/>
<path d="M11382 15790 c0 -19 2 -27 5 -17 2 9 2 25 0 35 -3 9 -5 1 -5 -18z"/>
<path d="M33392 15775 c0 -16 2 -22 5 -12 2 9 2 23 0 30 -3 6 -5 -1 -5 -18z"/>
<path d="M16070 15718 c0 -9 5 -20 11 -23 17 -11 20 0 4 21 -13 17 -14 17 -15
2z"/>
<path d="M33422 15665 c0 -16 2 -22 5 -12 2 9 2 23 0 30 -3 6 -5 -1 -5 -18z"/>
<path d="M16100 15673 c0 -5 5 -15 10 -23 8 -12 10 -11 10 8 0 12 -4 22 -10
22 -5 0 -10 -3 -10 -7z"/>
<path d="M11410 15613 c0 -13 5 -23 10 -23 13 0 13 11 0 30 -8 12 -10 11 -10
-7z"/>
<path d="M16130 15625 c0 -18 19 -40 26 -32 4 4 0 15 -9 24 -9 10 -17 13 -17
8z"/>
<path d="M16160 15571 c0 -4 9 -20 20 -34 11 -14 20 -30 20 -36 0 -6 5 -11 10
-11 14 0 12 16 -4 32 -7 8 -17 24 -20 36 -7 21 -26 31 -26 13z"/>
<path d="M33450 15553 c0 -12 5 -25 10 -28 13 -8 13 15 0 35 -8 12 -10 11 -10
-7z"/>
<path d="M33480 15461 c0 -11 5 -23 10 -26 6 -3 10 3 10 14 0 11 -4 23 -10 26
-5 3 -10 -3 -10 -14z"/>
<path d="M16230 15458 c0 -9 6 -21 13 -25 7 -4 18 -19 24 -33 10 -22 12 -22
12 -5 0 11 -11 34 -24 50 -18 22 -25 26 -25 13z"/>
<path d="M11447 15420 c3 -11 7 -20 9 -20 2 0 4 9 4 20 0 11 -4 20 -9 20 -5 0
-7 -9 -4 -20z"/>
<path d="M33510 15410 c0 -16 55 -73 67 -69 6 2 -7 21 -28 42 -22 21 -39 33
-39 27z"/>
<path d="M16290 15361 c0 -5 6 -16 14 -23 7 -8 17 -24 20 -36 4 -12 12 -22 17
-22 5 0 9 -6 9 -14 0 -7 7 -19 15 -26 23 -19 18 -4 -22 65 -35 60 -53 79 -53
56z"/>
<path d="M33605 15320 c3 -5 16 -10 28 -10 18 0 19 2 7 10 -20 13 -43 13 -35
0z"/>
<path d="M11482 15275 c0 -16 2 -22 5 -12 2 9 2 23 0 30 -3 6 -5 -1 -5 -18z"/>
<path d="M16390 15201 c0 -11 5 -21 11 -21 5 0 15 -13 20 -30 6 -16 14 -30 19
-30 4 0 11 -10 15 -22 4 -15 8 -18 12 -10 3 7 -2 21 -11 31 -9 10 -16 20 -16
24 0 3 -11 23 -25 43 -21 31 -25 33 -25 15z"/>
<path d="M11512 15140 c0 -19 2 -27 5 -17 2 9 2 25 0 35 -3 9 -5 1 -5 -18z"/>
<path d="M20113 15093 c9 -2 23 -2 30 0 6 3 -1 5 -18 5 -16 0 -22 -2 -12 -5z"/>
<path d="M16480 15056 c0 -8 6 -21 13 -28 8 -7 16 -18 18 -23 12 -27 52 -85
56 -81 5 4 -76 146 -83 146 -2 0 -4 -6 -4 -14z"/>
<path d="M11542 15005 c0 -16 2 -22 5 -12 2 9 2 23 0 30 -3 6 -5 -1 -5 -18z"/>
<path d="M20422 14915 c0 -16 2 -22 5 -12 2 9 2 23 0 30 -3 6 -5 -1 -5 -18z"/>
<path d="M16580 14897 c0 -9 5 -19 11 -22 5 -4 15 -19 21 -33 6 -15 12 -22 15
-16 2 7 -8 29 -22 49 -14 21 -25 31 -25 22z"/>
<path d="M11572 14875 c0 -16 2 -22 5 -12 2 9 2 23 0 30 -3 6 -5 -1 -5 -18z"/>
<path d="M20450 14813 c0 -13 5 -23 10 -23 13 0 13 11 0 30 -8 12 -10 11 -10
-7z"/>
<path d="M16640 14798 c0 -8 7 -21 15 -28 8 -7 15 -18 15 -26 0 -7 6 -19 13
-26 18 -21 36 -50 50 -80 6 -16 15 -28 19 -28 5 0 13 -12 19 -27 6 -16 13 -23
16 -16 2 7 -5 25 -15 40 -28 39 -73 111 -95 153 -25 46 -37 58 -37 38z"/>
<path d="M11600 14745 c0 -11 5 -27 10 -35 8 -12 10 -12 10 5 0 11 -5 27 -10
35 -8 12 -10 12 -10 -5z"/>
<path d="M20480 14750 c0 -8 5 -22 10 -30 9 -13 10 -13 10 0 0 8 -5 22 -10 30
-9 13 -10 13 -10 0z"/>
<path d="M20510 14687 c0 -14 42 -87 50 -87 5 0 12 -9 15 -21 7 -21 166 -189
179 -189 8 0 69 -42 77 -54 4 -5 12 -7 20 -4 7 2 -12 19 -41 37 -50 31 -220
189 -220 205 0 3 -16 30 -36 59 -40 58 -44 63 -44 54z"/>
<path d="M11630 14628 c0 -7 5 -20 10 -28 8 -12 10 -11 10 7 0 12 -4 25 -10
28 -5 3 -10 0 -10 -7z"/>
<path d="M16800 14538 c0 -9 5 -20 11 -23 17 -11 20 0 4 21 -13 17 -14 17 -15
2z"/>
<path d="M26758 14523 c7 -3 16 -2 19 1 4 3 -2 6 -13 5 -11 0 -14 -3 -6 -6z"/>
<path d="M11672 14500 c0 -14 2 -19 5 -12 2 6 2 18 0 25 -3 6 -5 1 -5 -13z"/>
<path d="M16830 14488 c0 -9 5 -20 11 -23 5 -4 14 -18 19 -31 5 -13 14 -24 21
-24 6 0 1 17 -12 38 -30 50 -39 59 -39 40z"/>
<path d="M26963 14493 c9 -2 23 -2 30 0 6 3 -1 5 -18 5 -16 0 -22 -2 -12 -5z"/>
<path d="M27188 14463 c6 -2 18 -2 25 0 6 3 1 5 -13 5 -14 0 -19 -2 -12 -5z"/>
<path d="M11702 14395 c0 -16 2 -22 5 -12 2 9 2 23 0 30 -3 6 -5 -1 -5 -18z"/>
<path d="M16891 14395 c-1 -6 14 -33 32 -61 19 -28 37 -59 41 -70 5 -10 10
-14 13 -8 2 6 -11 34 -29 62 -18 28 -38 59 -45 69 -6 10 -12 13 -12 8z"/>
<path d="M27608 14393 c7 -3 16 -2 19 1 4 3 -2 6 -13 5 -11 0 -14 -3 -6 -6z"/>
<path d="M27768 14363 c7 -3 16 -2 19 1 4 3 -2 6 -13 5 -11 0 -14 -3 -6 -6z"/>
<path d="M27928 14333 c6 -2 18 -2 25 0 6 3 1 5 -13 5 -14 0 -19 -2 -12 -5z"/>
<path d="M11730 14285 c0 -14 4 -25 9 -25 4 0 6 11 3 25 -2 14 -6 25 -8 25 -2
0 -4 -11 -4 -25z"/>
<path d="M20880 14306 c0 -7 82 -47 87 -43 5 5 -64 47 -78 47 -5 0 -9 -2 -9
-4z"/>
<path d="M28173 14303 c9 -2 23 -2 30 0 6 3 -1 5 -18 5 -16 0 -22 -2 -12 -5z"/>
<path d="M28433 14273 c9 -2 25 -2 35 0 9 3 1 5 -18 5 -19 0 -27 -2 -17 -5z"/>
<path d="M21015 14240 c3 -5 11 -10 16 -10 6 0 7 5 4 10 -3 6 -11 10 -16 10
-6 0 -7 -4 -4 -10z"/>
<path d="M16990 14228 c0 -9 5 -20 11 -23 17 -11 20 0 4 21 -13 17 -14 17 -15
2z"/>
<path d="M29490 14214 c0 -14 4 -23 9 -20 5 3 7 15 4 26 -7 28 -13 25 -13 -6z"/>
<path d="M21085 14210 c3 -5 11 -10 16 -10 6 0 7 5 4 10 -3 6 -11 10 -16 10
-6 0 -7 -4 -4 -10z"/>
<path d="M11760 14180 c0 -11 4 -20 9 -20 5 0 7 9 4 20 -3 11 -7 20 -9 20 -2
0 -4 -9 -4 -20z"/>
<path d="M17020 14176 c0 -8 5 -18 10 -21 6 -3 10 1 10 9 0 8 -4 18 -10 21 -5
3 -10 -1 -10 -9z"/>
<path d="M21178 14173 c6 -2 18 -2 25 0 6 3 1 5 -13 5 -14 0 -19 -2 -12 -5z"/>
<path d="M29520 14148 c0 -9 5 -20 10 -23 13 -8 13 5 0 25 -8 13 -10 13 -10
-2z"/>
<path d="M21298 14143 c6 -2 18 -2 25 0 6 3 1 5 -13 5 -14 0 -19 -2 -12 -5z"/>
<path d="M17050 14128 c0 -9 5 -20 11 -23 17 -11 20 0 4 21 -13 17 -14 17 -15
2z"/>
<path d="M21463 14113 c9 -2 23 -2 30 0 6 3 -1 5 -18 5 -16 0 -22 -2 -12 -5z"/>
<path d="M29550 14088 c0 -9 5 -20 10 -23 13 -8 13 5 0 25 -8 13 -10 13 -10
-2z"/>
<path d="M17080 14083 c0 -6 9 -22 20 -36 11 -14 20 -30 20 -36 0 -6 5 -11 10
-11 14 0 13 5 -16 47 -31 46 -34 49 -34 36z"/>
<path d="M11790 14068 c0 -7 5 -20 10 -28 8 -12 10 -11 10 7 0 12 -4 25 -10
28 -5 3 -10 0 -10 -7z"/>
<path d="M22408 14043 c7 -3 16 -2 19 1 4 3 -2 6 -13 5 -11 0 -14 -3 -6 -6z"/>
<path d="M29587 13999 c4 -13 8 -18 11 -10 2 7 -1 18 -6 23 -8 8 -9 4 -5 -13z"/>
<path d="M11820 13973 c0 -5 5 -15 10 -23 8 -12 10 -11 10 8 0 12 -4 22 -10
22 -5 0 -10 -3 -10 -7z"/>
<path d="M17150 13968 c0 -9 5 -20 11 -23 17 -11 20 0 4 21 -13 17 -14 17 -15
2z"/>
<path d="M23098 13953 c7 -3 16 -2 19 1 4 3 -2 6 -13 5 -11 0 -14 -3 -6 -6z"/>
<path d="M29621 13924 c0 -11 3 -14 6 -6 3 7 2 16 -1 19 -3 4 -6 -2 -5 -13z"/>
<path d="M17180 13923 c0 -4 5 -15 10 -23 8 -13 10 -13 10 2 0 9 -4 20 -10 23
-5 3 -10 3 -10 -2z"/>
<path d="M23165 13920 c3 -5 13 -10 21 -10 8 0 17 -7 20 -15 4 -8 14 -15 23
-15 11 1 7 8 -14 25 -30 25 -62 34 -50 15z"/>
<path d="M11862 13870 c0 -14 2 -19 5 -12 2 6 2 18 0 25 -3 6 -5 1 -5 -13z"/>
<path d="M17210 13868 c0 -9 5 -20 11 -23 17 -11 20 0 4 21 -13 17 -14 17 -15
2z"/>
<path d="M23260 13860 c8 -5 20 -10 25 -10 6 0 3 5 -5 10 -8 5 -19 10 -25 10
-5 0 -3 -5 5 -10z"/>
<path d="M29651 13854 c0 -11 3 -14 6 -6 3 7 2 16 -1 19 -3 4 -6 -2 -5 -13z"/>
<path d="M23300 13830 c0 -5 8 -14 18 -19 17 -9 119 -110 206 -205 25 -27 49
-47 52 -43 7 7 -254 277 -268 277 -4 0 -8 -4 -8 -10z"/>
<path d="M17241 13827 c-1 -12 43 -87 52 -87 12 0 8 16 -10 38 -10 11 -23 29
-30 39 -6 10 -12 14 -12 10z"/>
<path d="M11892 13775 c0 -16 2 -22 5 -12 2 9 2 23 0 30 -3 6 -5 -1 -5 -18z"/>
<path d="M29680 13780 c0 -11 4 -20 9 -20 5 0 7 9 4 20 -3 11 -7 20 -9 20 -2
0 -4 -9 -4 -20z"/>
<path d="M17307 13711 c3 -12 9 -21 14 -21 14 0 11 16 -5 29 -12 10 -13 8 -9
-8z"/>
<path d="M29710 13706 c0 -8 5 -18 10 -21 6 -3 10 1 10 9 0 8 -4 18 -10 21 -5
3 -10 -1 -10 -9z"/>
<path d="M11922 13685 c0 -16 2 -22 5 -12 2 9 2 23 0 30 -3 6 -5 -1 -5 -18z"/>
<path d="M29740 13636 c0 -8 5 -18 10 -21 6 -3 10 1 10 9 0 8 -4 18 -10 21 -5
3 -10 -1 -10 -9z"/>
<path d="M11951 13603 c-1 -12 4 -25 9 -28 12 -7 12 2 0 30 -8 19 -9 19 -9 -2z"/>
<path d="M29781 13544 c0 -11 3 -14 6 -6 3 7 2 16 -1 19 -3 4 -6 -2 -5 -13z"/>
<path d="M23590 13531 c0 -6 4 -13 10 -16 6 -3 7 1 4 9 -7 18 -14 21 -14 7z"/>
<path d="M11980 13508 c0 -7 5 -20 10 -28 8 -12 10 -11 10 7 0 12 -4 25 -10
28 -5 3 -10 0 -10 -7z"/>
<path d="M23620 13495 c0 -13 78 -101 84 -94 3 3 -14 27 -39 55 -24 27 -44 45
-45 39z"/>
<path d="M29812 13470 c0 -14 2 -19 5 -12 2 6 2 18 0 25 -3 6 -5 1 -5 -13z"/>
<path d="M12010 13416 c0 -8 5 -18 10 -21 6 -3 10 3 10 14 0 12 -4 21 -10 21
-5 0 -10 -6 -10 -14z"/>
<path d="M29842 13380 c0 -14 2 -19 5 -12 2 6 2 18 0 25 -3 6 -5 1 -5 -13z"/>
<path d="M23710 13381 c0 -6 5 -13 10 -16 6 -3 10 1 10 9 0 9 -4 16 -10 16 -5
0 -10 -4 -10 -9z"/>
<path d="M12048 13325 c2 -14 6 -25 8 -25 2 0 4 11 4 25 0 14 -4 25 -9 25 -4
0 -6 -11 -3 -25z"/>
<path d="M23749 13333 c5 -10 22 -32 38 -50 15 -17 43 -48 61 -68 18 -21 36
-35 39 -31 4 3 -7 21 -23 39 -83 88 -104 113 -104 120 0 4 -5 7 -10 7 -7 0 -7
-6 -1 -17z"/>
<path d="M29870 13300 c0 -11 4 -20 9 -20 5 0 7 9 4 20 -3 11 -7 20 -9 20 -2
0 -4 -9 -4 -20z"/>
<path d="M12082 13250 c0 -14 2 -19 5 -12 2 6 2 18 0 25 -3 6 -5 1 -5 -13z"/>
<path d="M29902 13220 c0 -14 2 -19 5 -12 2 6 2 18 0 25 -3 6 -5 1 -5 -13z"/>
<path d="M12110 13173 c0 -13 5 -23 10 -23 13 0 13 11 0 30 -8 12 -10 11 -10
-7z"/>
<path d="M23900 13160 c0 -5 5 -10 10 -10 6 0 10 5 10 10 0 6 -4 10 -10 10 -5
0 -10 -4 -10 -10z"/>
<path d="M23930 13133 c0 -5 17 -23 38 -41 20 -17 62 -54 92 -82 30 -27 58
-50 62 -50 11 0 10 18 -1 22 -9 3 -77 59 -153 127 -21 18 -38 29 -38 24z"/>
<path d="M29930 13125 c0 -5 5 -17 10 -25 5 -8 10 -10 10 -5 0 6 -5 17 -10 25
-5 8 -10 11 -10 5z"/>
<path d="M12140 13100 c0 -8 5 -22 10 -30 9 -13 10 -13 10 0 0 8 -5 22 -10 30
-9 13 -10 13 -10 0z"/>
<path d="M12170 13018 c0 -7 5 -20 10 -28 8 -12 10 -11 10 7 0 12 -4 25 -10
28 -5 3 -10 0 -10 -7z"/>
<path d="M29966 12995 c4 -8 8 -15 10 -15 2 0 4 7 4 15 0 8 -4 15 -10 15 -5 0
-7 -7 -4 -15z"/>
<path d="M12201 12943 c0 -4 4 -17 9 -28 8 -19 9 -19 9 2 1 12 -3 25 -9 28 -5
3 -10 3 -9 -2z"/>
<path d="M24175 12925 c17 -13 36 -24 43 -25 8 0 0 11 -16 25 -17 14 -36 25
-43 25 -8 0 0 -11 16 -25z"/>
<path d="M30002 12890 c0 -14 2 -19 5 -12 2 6 2 18 0 25 -3 6 -5 1 -5 -13z"/>
<path d="M24250 12880 c0 -5 7 -10 16 -10 8 0 12 5 9 10 -3 6 -10 10 -16 10
-5 0 -9 -4 -9 -10z"/>
<path d="M12231 12863 c0 -5 4 -17 9 -28 8 -18 9 -17 9 8 1 15 -3 27 -9 27 -5
0 -10 -3 -9 -7z"/>
<path d="M24310 12850 c0 -5 7 -10 16 -10 8 0 12 5 9 10 -3 6 -10 10 -16 10
-5 0 -9 -4 -9 -10z"/>
<path d="M24385 12810 c3 -5 10 -10 16 -10 5 0 9 5 9 10 0 6 -7 10 -16 10 -8
0 -12 -4 -9 -10z"/>
<path d="M12264 12784 c3 -9 6 -20 6 -25 0 -5 4 -9 9 -9 4 0 6 11 3 25 -2 14
-9 25 -14 25 -6 0 -7 -7 -4 -16z"/>
<path d="M24450 12786 c0 -2 9 -6 20 -9 11 -3 20 -1 20 4 0 5 -9 9 -20 9 -11
0 -20 -2 -20 -4z"/>
<path d="M30033 12735 c0 -22 2 -30 4 -17 2 12 2 30 0 40 -3 9 -5 -1 -4 -23z"/>
<path d="M12300 12708 c0 -9 5 -20 10 -23 13 -8 13 5 0 25 -8 13 -10 13 -10
-2z"/>
<path d="M24798 12713 c6 -2 18 -2 25 0 6 3 1 5 -13 5 -14 0 -19 -2 -12 -5z"/>
<path d="M17382 12635 c0 -16 2 -22 5 -12 2 9 2 23 0 30 -3 6 -5 -1 -5 -18z"/>
<path d="M12330 12636 c0 -8 5 -18 10 -21 6 -3 10 1 10 9 0 8 -4 18 -10 21 -5
3 -10 -1 -10 -9z"/>
<path d="M12360 12566 c0 -8 5 -18 10 -21 6 -3 10 1 10 9 0 8 -4 18 -10 21 -5
3 -10 -1 -10 -9z"/>
<path d="M17412 12540 c0 -14 2 -19 5 -12 2 6 2 18 0 25 -3 6 -5 1 -5 -13z"/>
<path d="M30062 12525 c0 -16 2 -22 5 -12 2 9 2 23 0 30 -3 6 -5 -1 -5 -18z"/>
<path d="M12390 12508 c0 -7 5 -20 10 -28 8 -12 10 -11 10 7 0 12 -4 25 -10
28 -5 3 -10 0 -10 -7z"/>
<path d="M17442 12445 c0 -16 2 -22 5 -12 2 9 2 23 0 30 -3 6 -5 -1 -5 -18z"/>
<path d="M17470 12373 c0 -13 5 -23 10 -23 13 0 13 11 0 30 -8 12 -10 11 -10
-7z"/>
<path d="M17500 12306 c0 -9 5 -16 10 -16 6 0 10 4 10 9 0 6 -4 13 -10 16 -5
3 -10 -1 -10 -9z"/>
<path d="M18978 12303 c7 -3 16 -2 19 1 4 3 -2 6 -13 5 -11 0 -14 -3 -6 -6z"/>
<path d="M19055 12270 c4 -6 11 -8 16 -5 14 9 11 15 -7 15 -8 0 -12 -5 -9 -10z"/>
<path d="M17530 12261 c0 -5 7 -16 15 -25 8 -8 15 -18 15 -23 0 -10 50 -58 50
-48 0 8 -72 105 -77 105 -2 0 -3 -4 -3 -9z"/>
<path d="M19140 12240 c20 -13 33 -13 25 0 -3 6 -14 10 -23 10 -15 0 -15 -2
-2 -10z"/>
<path d="M19215 12210 c3 -5 13 -10 21 -10 8 0 12 5 9 10 -3 6 -13 10 -21 10
-8 0 -12 -4 -9 -10z"/>
<path d="M19305 12180 c3 -5 11 -10 16 -10 6 0 7 5 4 10 -3 6 -11 10 -16 10
-6 0 -7 -4 -4 -10z"/>
<path d="M17625 12140 c3 -5 8 -10 11 -10 2 0 4 5 4 10 0 6 -5 10 -11 10 -5 0
-7 -4 -4 -10z"/>
<path d="M19428 12143 c7 -3 16 -2 19 1 4 3 -2 6 -13 5 -11 0 -14 -3 -6 -6z"/>
<path d="M17655 12110 c3 -5 8 -10 11 -10 2 0 4 5 4 10 0 6 -5 10 -11 10 -5 0
-7 -4 -4 -10z"/>
<path d="M19558 12113 c6 -2 18 -2 25 0 6 3 1 5 -13 5 -14 0 -19 -2 -12 -5z"/>
<path d="M17685 12080 c3 -5 11 -10 16 -10 6 0 7 5 4 10 -3 6 -11 10 -16 10
-6 0 -7 -4 -4 -10z"/>
<path d="M17734 12035 c15 -14 35 -25 44 -25 12 0 9 7 -13 25 -40 32 -66 33
-31 0z"/>
<path d="M17810 11990 c0 -6 7 -10 15 -10 8 0 15 2 15 4 0 2 -7 6 -15 10 -8 3
-15 1 -15 -4z"/>
<path d="M17855 11960 c3 -5 14 -10 23 -10 15 0 15 2 2 10 -20 13 -33 13 -25
0z"/>
<path d="M17938 11923 c6 -2 18 -2 25 0 6 3 1 5 -13 5 -14 0 -19 -2 -12 -5z"/>
<path d="M18008 11893 c6 -2 18 -2 25 0 6 3 1 5 -13 5 -14 0 -19 -2 -12 -5z"/>
<path d="M12740 11786 c0 -8 5 -18 10 -21 6 -3 10 1 10 9 0 8 -4 18 -10 21 -5
3 -10 -1 -10 -9z"/>
<path d="M30091 11774 c0 -11 3 -14 6 -6 3 7 2 16 -1 19 -3 4 -6 -2 -5 -13z"/>
<path d="M12770 11732 c0 -5 6 -17 14 -27 13 -18 14 -18 9 8 -5 24 -23 39 -23
19z"/>
<path d="M12800 11672 c0 -5 7 -17 16 -28 14 -17 15 -17 10 -1 -3 10 -6 23 -6
28 0 5 -4 9 -10 9 -5 0 -10 -4 -10 -8z"/>
<path d="M30120 11638 c0 -7 5 -20 10 -28 8 -12 10 -11 10 7 0 12 -4 25 -10
28 -5 3 -10 0 -10 -7z"/>
<path d="M12837 11600 c3 -11 9 -20 14 -20 11 0 11 3 3 24 -9 23 -23 20 -17
-4z"/>
<path d="M12867 11550 c7 -25 23 -37 23 -17 0 8 -6 20 -14 26 -12 10 -13 8 -9
-9z"/>
<path d="M30150 11551 c0 -6 5 -13 10 -16 6 -3 10 1 10 9 0 9 -4 16 -10 16 -5
0 -10 -4 -10 -9z"/>
<path d="M12900 11496 c0 -8 5 -18 10 -21 6 -3 10 1 10 9 0 8 -4 18 -10 21 -5
3 -10 -1 -10 -9z"/>
<path d="M30186 11475 c4 -8 8 -15 10 -15 2 0 4 7 4 15 0 8 -4 15 -10 15 -5 0
-7 -7 -4 -15z"/>
<path d="M12930 11451 c0 -17 12 -41 20 -41 10 0 1 38 -11 46 -5 3 -9 1 -9 -5z"/>
<path d="M30220 11410 c0 -11 4 -20 9 -20 5 0 7 9 4 20 -3 11 -7 20 -9 20 -2
0 -4 -9 -4 -20z"/>
<path d="M12960 11386 c0 -8 5 -18 10 -21 6 -3 10 3 10 14 0 12 -4 21 -10 21
-5 0 -10 -6 -10 -14z"/>
<path d="M30247 11366 c7 -22 53 -73 53 -60 0 6 -13 25 -30 44 -16 19 -27 27
-23 16z"/>
<path d="M12990 11338 c0 -9 5 -20 11 -23 17 -11 20 0 4 21 -13 17 -14 17 -15
2z"/>
<path d="M13027 11270 c3 -11 9 -20 14 -20 11 0 11 3 3 24 -9 23 -23 20 -17
-4z"/>
<path d="M30310 11278 c0 -24 232 -254 249 -246 3 2 -51 60 -121 129 -71 70
-128 122 -128 117z"/>
<path d="M13060 11216 c0 -8 5 -18 11 -21 5 -4 15 -19 21 -33 6 -17 12 -22 15
-14 3 7 -2 21 -11 31 -9 10 -16 23 -16 29 0 6 -4 14 -10 17 -5 3 -10 -1 -10
-9z"/>
<path d="M13120 11113 c0 -12 5 -25 10 -28 13 -8 13 15 0 35 -8 12 -10 11 -10
-7z"/>
<path d="M13150 11066 c0 -11 39 -76 57 -94 7 -7 13 -20 13 -28 0 -8 5 -14 10
-14 6 0 15 -12 21 -27 6 -16 13 -23 16 -17 2 6 -12 35 -32 65 -68 104 -84 127
-85 115z"/>
<path d="M30595 11000 c3 -5 8 -10 11 -10 2 0 4 5 4 10 0 6 -5 10 -11 10 -5 0
-7 -4 -4 -10z"/>
<path d="M30641 10955 c13 -13 30 -25 37 -25 6 0 12 -4 12 -9 0 -9 30 -24 36
-18 5 4 -91 77 -101 77 -4 0 3 -11 16 -25z"/>
<path d="M30750 10880 c0 -5 7 -10 16 -10 8 0 12 5 9 10 -3 6 -10 10 -16 10
-5 0 -9 -4 -9 -10z"/>
<path d="M13280 10858 c0 -9 5 -20 11 -23 17 -11 20 0 4 21 -13 17 -14 17 -15
2z"/>
<path d="M30795 10850 c3 -5 14 -10 23 -10 15 0 15 2 2 10 -20 13 -33 13 -25
0z"/>
<path d="M30853 10813 c9 -9 20 -13 24 -9 4 4 1 11 -7 16 -25 16 -35 11 -17
-7z"/>
<path d="M13310 10811 c0 -5 6 -16 13 -23 13 -15 22 -29 69 -107 17 -30 33
-50 36 -43 2 6 -5 24 -16 39 -46 66 -82 125 -82 134 0 5 -4 9 -10 9 -5 0 -10
-4 -10 -9z"/>
<path d="M32858 10813 c7 -3 16 -2 19 1 4 3 -2 6 -13 5 -11 0 -14 -3 -6 -6z"/>
<path d="M30900 10786 c0 -7 82 -47 87 -43 5 5 -64 47 -78 47 -5 0 -9 -2 -9
-4z"/>
<path d="M32930 10786 c0 -2 7 -6 15 -10 8 -3 15 -1 15 4 0 6 -7 10 -15 10 -8
0 -15 -2 -15 -4z"/>
<path d="M33010 10756 c0 -2 9 -6 20 -9 11 -3 20 -1 20 4 0 5 -9 9 -20 9 -11
0 -20 -2 -20 -4z"/>
<path d="M31015 10720 c3 -5 13 -10 21 -10 8 0 12 5 9 10 -3 6 -13 10 -21 10
-8 0 -12 -4 -9 -10z"/>
<path d="M33165 10720 c3 -5 8 -10 11 -10 2 0 4 5 4 10 0 6 -5 10 -11 10 -5 0
-7 -4 -4 -10z"/>
<path d="M31087 10689 c7 -7 15 -10 18 -7 3 3 -2 9 -12 12 -14 6 -15 5 -6 -5z"/>
<path d="M11292 10645 c0 -16 2 -22 5 -12 2 9 2 23 0 30 -3 6 -5 -1 -5 -18z"/>
<path d="M31140 10659 c0 -5 9 -9 20 -9 11 0 20 2 20 4 0 2 -9 6 -20 9 -11 3
-20 1 -20 -4z"/>
<path d="M31208 10628 c6 -6 18 -8 28 -6 14 3 12 5 -9 10 -19 3 -25 2 -19 -4z"/>
<path d="M13440 10607 c0 -10 7 -20 15 -23 8 -4 15 -12 15 -19 0 -8 5 -17 10
-20 19 -12 9 20 -15 50 -19 23 -25 26 -25 12z"/>
<path d="M31295 10590 c4 -6 11 -8 16 -5 14 9 11 15 -7 15 -8 0 -12 -5 -9 -10z"/>
<path d="M11310 10575 c0 -21 97 -115 118 -115 15 1 14 3 -3 15 -39 29 -84 77
-90 96 -8 23 -25 25 -25 4z"/>
<path d="M31380 10560 c19 -13 30 -13 30 0 0 6 -10 10 -22 10 -19 0 -20 -2 -8
-10z"/>
<path d="M31460 10530 c20 -13 33 -13 25 0 -3 6 -14 10 -23 10 -15 0 -15 -2
-2 -10z"/>
<path d="M13500 10522 c0 -16 41 -72 52 -72 10 0 -3 24 -31 60 -12 14 -21 19
-21 12z"/>
<path d="M31550 10499 c0 -5 9 -9 20 -9 11 0 20 2 20 4 0 2 -9 6 -20 9 -11 3
-20 1 -20 -4z"/>
<path d="M31678 10463 c7 -3 16 -2 19 1 4 3 -2 6 -13 5 -11 0 -14 -3 -6 -6z"/>
<path d="M13560 10434 c0 -6 22 -40 48 -75 27 -35 51 -72 55 -81 3 -10 11 -18
17 -18 5 0 10 -7 10 -15 0 -9 7 -18 15 -21 8 -4 15 -10 15 -14 0 -12 110 -164
121 -168 5 -2 9 -8 9 -13 0 -9 37 -67 50 -79 3 -3 37 -45 75 -95 38 -49 82
-103 97 -119 15 -17 28 -33 28 -36 0 -7 23 -36 53 -70 7 -8 35 -44 62 -80 45
-60 75 -96 116 -140 9 -10 34 -40 55 -66 22 -27 57 -69 79 -93 22 -24 47 -51
55 -60 8 -9 35 -41 60 -71 62 -75 104 -122 180 -200 36 -37 112 -118 170 -180
131 -142 316 -327 490 -490 73 -69 161 -152 195 -185 69 -67 98 -92 168 -148
26 -21 63 -52 81 -70 43 -41 79 -72 141 -122 27 -21 61 -51 75 -65 14 -14 62
-54 108 -88 45 -35 90 -71 100 -81 29 -29 99 -81 110 -81 6 0 12 -4 14 -9 2
-5 37 -35 78 -67 41 -32 79 -64 83 -71 4 -7 14 -13 21 -13 8 0 16 -7 20 -15 3
-8 11 -15 18 -15 8 0 28 -13 46 -30 18 -16 35 -30 38 -30 9 0 69 -45 77 -57 4
-7 15 -13 22 -13 8 0 15 -4 15 -9 0 -10 38 -34 73 -47 9 -3 17 -10 17 -14 0
-4 19 -20 43 -36 23 -15 59 -41 79 -57 21 -16 43 -27 49 -25 6 2 -8 17 -32 33
-24 16 -70 49 -101 72 -31 24 -59 43 -62 43 -3 0 -34 21 -70 48 -35 26 -97 71
-138 100 -40 29 -87 65 -105 80 -17 15 -44 36 -59 47 -15 11 -51 39 -79 63
-29 23 -57 42 -64 42 -6 0 -11 4 -11 8 0 4 -21 24 -48 44 -26 20 -58 46 -72
57 -14 11 -30 24 -35 28 -6 5 -26 22 -46 38 -19 17 -57 48 -84 70 -27 22 -92
78 -145 125 -53 47 -110 96 -126 109 -52 43 -187 165 -231 209 -24 23 -45 42
-47 42 -3 0 -33 28 -69 63 -35 34 -124 121 -198 192 -214 209 -568 582 -702
742 -18 22 -80 93 -188 218 -10 11 -46 54 -80 95 -34 41 -66 77 -70 78 -5 2
-9 9 -9 15 0 7 -24 40 -52 74 -29 33 -80 96 -113 139 -33 42 -66 83 -72 90 -7
7 -13 15 -13 19 0 4 -22 32 -50 64 -27 32 -50 61 -50 65 0 4 -21 36 -47 71
-27 35 -77 105 -113 156 -36 50 -71 97 -77 104 -7 8 -13 17 -13 22 -1 13 -60
79 -60 67z"/>
<path d="M31788 10433 c6 -2 18 -2 25 0 6 3 1 5 -13 5 -14 0 -19 -2 -12 -5z"/>
<path d="M31933 10403 c9 -2 23 -2 30 0 6 3 -1 5 -18 5 -16 0 -22 -2 -12 -5z"/>
<path d="M32100 10376 c0 -9 30 -14 35 -6 4 6 -3 10 -14 10 -12 0 -21 -2 -21
-4z"/>
<path d="M17105 6880 c3 -5 13 -10 21 -10 8 0 17 -7 20 -15 4 -8 11 -15 17
-15 6 0 18 -7 28 -16 10 -9 24 -14 31 -11 9 3 7 7 -7 13 -11 4 -36 20 -55 36
-33 27 -68 38 -55 18z"/>
<path d="M17240 6797 c9 -10 80 -57 87 -57 3 0 11 -7 18 -16 6 -9 18 -15 25
-12 7 2 -11 20 -43 41 -51 34 -99 59 -87 44z"/>
<path d="M17395 6690 c3 -5 11 -10 17 -10 6 0 19 -7 29 -16 10 -9 23 -14 30
-12 7 2 -4 14 -25 26 -39 23 -61 28 -51 12z"/>
<path d="M17515 6616 c30 -25 65 -40 65 -28 0 8 -75 52 -87 52 -4 0 6 -11 22
-24z"/>
<path d="M17590 6570 c0 -6 10 -15 23 -21 31 -14 62 -32 81 -48 8 -7 21 -11
28 -9 6 2 -14 19 -45 37 -31 18 -59 36 -62 42 -8 12 -25 12 -25 -1z"/>
<path d="M17745 6470 c3 -5 13 -10 21 -10 8 0 12 5 9 10 -3 6 -13 10 -21 10
-8 0 -12 -4 -9 -10z"/>
<path d="M17795 6440 c3 -5 13 -10 21 -10 8 0 12 5 9 10 -3 6 -13 10 -21 10
-8 0 -12 -4 -9 -10z"/>
<path d="M17850 6410 c0 -5 10 -10 23 -10 18 0 19 2 7 10 -19 13 -30 13 -30 0z"/>
<path d="M17910 6375 c7 -8 20 -15 29 -15 13 1 13 3 -3 15 -26 19 -42 19 -26
0z"/>
<path d="M17965 6340 c3 -5 13 -10 21 -10 8 0 12 5 9 10 -3 6 -13 10 -21 10
-8 0 -12 -4 -9 -10z"/>
<path d="M18010 6320 c0 -9 39 -25 46 -18 2 3 -7 10 -21 16 -14 6 -25 7 -25 2z"/>
<path d="M18075 6280 c3 -5 14 -10 23 -10 15 0 15 2 2 10 -20 13 -33 13 -25 0z"/>
<path d="M18124 6251 c3 -5 15 -11 26 -14 17 -4 19 -3 9 9 -12 15 -44 20 -35
5z"/>
<path d="M18193 6213 c9 -9 20 -13 24 -9 4 4 1 11 -7 16 -25 16 -35 11 -17 -7z"/>
<path d="M18230 6190 c0 -5 4 -10 9 -10 5 0 18 -3 28 -6 16 -5 16 -4 -1 10
-23 18 -36 20 -36 6z"/>
<path d="M18290 6160 c0 -12 28 -25 36 -17 3 3 -4 10 -15 17 -15 7 -21 7 -21
0z"/>
<path d="M18355 6120 c3 -5 13 -10 21 -10 8 0 12 5 9 10 -3 6 -13 10 -21 10
-8 0 -12 -4 -9 -10z"/>
<path d="M18415 6090 c3 -5 13 -10 21 -10 8 0 12 5 9 10 -3 6 -13 10 -21 10
-8 0 -12 -4 -9 -10z"/>
<path d="M18480 6060 c0 -5 7 -10 16 -10 8 0 12 5 9 10 -3 6 -10 10 -16 10 -5
0 -9 -4 -9 -10z"/>
<path d="M18540 6030 c0 -5 7 -10 16 -10 8 0 12 5 9 10 -3 6 -10 10 -16 10 -5
0 -9 -4 -9 -10z"/>
<path d="M18600 6000 c0 -7 24 -20 36 -20 13 0 1 19 -16 23 -11 3 -20 2 -20
-3z"/>
<path d="M18665 5960 c3 -5 15 -10 26 -10 11 0 17 5 14 10 -3 6 -15 10 -26 10
-11 0 -17 -4 -14 -10z"/>
<path d="M18725 5930 c3 -5 16 -10 28 -10 18 0 19 2 7 10 -20 13 -43 13 -35 0z"/>
<path d="M18790 5900 c0 -5 7 -10 16 -10 8 0 12 5 9 10 -3 6 -10 10 -16 10 -5
0 -9 -4 -9 -10z"/>
<path d="M18850 5870 c0 -5 10 -10 23 -10 18 0 19 2 7 10 -19 13 -30 13 -30 0z"/>
<path d="M18920 5840 c0 -6 7 -10 15 -10 8 0 15 2 15 4 0 2 -7 6 -15 10 -8 3
-15 1 -15 -4z"/>
<path d="M18990 5800 c20 -13 43 -13 35 0 -3 6 -16 10 -28 10 -18 0 -19 -2 -7
-10z"/>
<path d="M19055 5770 c3 -5 15 -10 26 -10 11 0 17 5 14 10 -3 6 -15 10 -26 10
-11 0 -17 -4 -14 -10z"/>
<path d="M19130 5740 c8 -5 22 -10 30 -10 13 0 13 1 0 10 -8 5 -22 10 -30 10
-13 0 -13 -1 0 -10z"/>
<path d="M19195 5710 c3 -5 16 -10 28 -10 18 0 19 2 7 10 -20 13 -43 13 -35 0z"/>
<path d="M19265 5680 c3 -5 13 -10 21 -10 8 0 12 5 9 10 -3 6 -13 10 -21 10
-8 0 -12 -4 -9 -10z"/>
<path d="M19330 5650 c0 -5 10 -10 23 -10 18 0 19 2 7 10 -19 13 -30 13 -30 0z"/>
<path d="M19415 5610 c28 -12 37 -12 30 0 -3 6 -16 10 -28 9 -21 0 -21 -1 -2
-9z"/>
<path d="M19480 5580 c20 -13 43 -13 35 0 -3 6 -16 10 -28 10 -18 0 -19 -2 -7
-10z"/>
<path d="M19555 5550 c3 -5 16 -10 28 -10 18 0 19 2 7 10 -20 13 -43 13 -35 0z"/>
<path d="M19635 5520 c3 -5 16 -10 28 -10 18 0 19 2 7 10 -20 13 -43 13 -35 0z"/>
<path d="M19715 5490 c3 -5 14 -10 23 -10 15 0 15 2 2 10 -20 13 -33 13 -25 0z"/>
<path d="M19800 5456 c0 -9 30 -14 35 -6 4 6 -3 10 -14 10 -12 0 -21 -2 -21
-4z"/>
<path d="M19885 5420 c28 -12 37 -12 30 0 -3 6 -16 10 -28 9 -21 0 -21 -1 -2
-9z"/>
<path d="M19960 5390 c20 -13 43 -13 35 0 -3 6 -16 10 -28 10 -18 0 -19 -2 -7
-10z"/>
<path d="M20035 5360 c3 -5 16 -10 28 -10 18 0 19 2 7 10 -20 13 -43 13 -35 0z"/>
<path d="M20125 5330 c3 -5 14 -10 23 -10 15 0 15 2 2 10 -20 13 -33 13 -25 0z"/>
<path d="M20220 5299 c0 -5 9 -9 20 -9 11 0 20 2 20 4 0 2 -9 6 -20 9 -11 3
-20 1 -20 -4z"/>
<path d="M20318 5263 c6 -2 18 -2 25 0 6 3 1 5 -13 5 -14 0 -19 -2 -12 -5z"/>
<path d="M20410 5230 c20 -13 43 -13 35 0 -3 6 -16 10 -28 10 -18 0 -19 -2 -7
-10z"/>
<path d="M20500 5200 c20 -13 43 -13 35 0 -3 6 -16 10 -28 10 -18 0 -19 -2 -7
-10z"/>
<path d="M20595 5170 c3 -5 13 -10 21 -10 8 0 12 5 9 10 -3 6 -13 10 -21 10
-8 0 -12 -4 -9 -10z"/>
<path d="M20690 5140 c0 -5 10 -10 23 -10 18 0 19 2 7 10 -19 13 -30 13 -30 0z"/>
<path d="M20798 5103 c6 -2 18 -2 25 0 6 3 1 5 -13 5 -14 0 -19 -2 -12 -5z"/>
<path d="M20903 5073 c9 -2 23 -2 30 0 6 3 -1 5 -18 5 -16 0 -22 -2 -12 -5z"/>
<path d="M21015 5040 c3 -5 13 -10 21 -10 8 0 14 5 14 10 0 6 -9 10 -21 10
-11 0 -17 -4 -14 -10z"/>
<path d="M21130 5010 c20 -13 43 -13 35 0 -3 6 -16 10 -28 10 -18 0 -19 -2 -7
-10z"/>
<path d="M21235 4980 c3 -5 16 -10 28 -10 18 0 19 2 7 10 -20 13 -43 13 -35 0z"/>
<path d="M21358 4943 c6 -2 18 -2 25 0 6 3 1 5 -13 5 -14 0 -19 -2 -12 -5z"/>
<path d="M21488 4913 c6 -2 18 -2 25 0 6 3 1 5 -13 5 -14 0 -19 -2 -12 -5z"/>
<path d="M21623 4883 c9 -2 23 -2 30 0 6 3 -1 5 -18 5 -16 0 -22 -2 -12 -5z"/>
<path d="M21755 4850 c28 -12 47 -12 40 0 -3 6 -18 10 -33 9 -24 0 -25 -1 -7
-9z"/>
<path d="M21890 4820 c8 -5 24 -10 35 -10 17 0 17 2 5 10 -8 5 -24 10 -35 10
-17 0 -17 -2 -5 -10z"/>
<path d="M22030 4790 c0 -5 10 -10 23 -10 18 0 19 2 7 10 -19 13 -30 13 -30 0z"/>
<path d="M22218 4753 c6 -2 18 -2 25 0 6 3 1 5 -13 5 -14 0 -19 -2 -12 -5z"/>
<path d="M22393 4723 c9 -2 23 -2 30 0 6 3 -1 5 -18 5 -16 0 -22 -2 -12 -5z"/>
<path d="M22563 4693 c9 -2 25 -2 35 0 9 3 1 5 -18 5 -19 0 -27 -2 -17 -5z"/>
<path d="M22758 4663 c12 -2 30 -2 40 0 9 3 -1 5 -23 4 -22 0 -30 -2 -17 -4z"/>
<path d="M23010 4630 c20 -13 43 -13 35 0 -3 6 -16 10 -28 10 -18 0 -19 -2 -7
-10z"/>
<path d="M23268 4593 c6 -2 18 -2 25 0 6 3 1 5 -13 5 -14 0 -19 -2 -12 -5z"/>
<path d="M23603 4563 c9 -2 25 -2 35 0 9 3 1 5 -18 5 -19 0 -27 -2 -17 -5z"/>
<path d="M24018 4533 c12 -2 30 -2 40 0 9 3 -1 5 -23 4 -22 0 -30 -2 -17 -4z"/>
</g>
</svg>
