<svg aria-hidden="true" style="position: absolute; width: 0; height: 0; overflow: hidden;" version="1.1"
    xmlns="http://www.w3.org/2000/svg" xmlns:xlink="http://www.w3.org/1999/xlink">
    <defs>
        <symbol id="icon-Telegram_black" viewBox="0 0 32 32">
            <path d="M32 16c0 8.837-7.163 16-16 16s-16-7.163-16-16c0-8.837 7.163-16 16-16s16 7.163 16 16z"></path>
            <path fill="#fff" style="fill: var(--color2, #fff)"
                d="M7.339 15.725q6.979-3.041 9.307-4.010c4.432-1.843 5.358-2.163 5.953-2.175 0.006-0 0.013-0 0.020-0 0.224 0 0.431 0.070 0.602 0.189l-0.003-0.002c0.124 0.107 0.208 0.258 0.227 0.429l0 0.003c0.021 0.131 0.033 0.282 0.033 0.436 0 0.068-0.002 0.136-0.007 0.203l0-0.009c-0.24 2.53-1.28 8.646-1.808 11.472-0.223 1.191-0.664 1.597-1.091 1.637-0.926 0.085-1.637-0.613-2.53-1.201-1.405-0.921-2.198-1.488-3.562-2.393-1.576-1.042-0.554-1.609 0.344-2.541 0.235-0.244 4.316-3.959 4.397-4.295 0.005-0.020 0.007-0.044 0.007-0.068 0-0.083-0.031-0.158-0.082-0.215l0 0c-0.056-0.035-0.124-0.056-0.196-0.056-0.048 0-0.094 0.009-0.137 0.026l0.003-0.001q-0.21 0.046-6.73 4.449-0.956 0.656-1.731 0.64c-0.57-0.013-1.665-0.323-2.481-0.595-0.999-0.324-1.786-0.496-1.724-1.042q0.055-0.429 1.188-0.88z">
            </path>
        </symbol>
        <symbol id="icon-Twitter_black" viewBox="0 0 32 32">
            <path d="M32 16c0 8.837-7.163 16-16 16s-16-7.163-16-16c0-8.837 7.163-16 16-16s16 7.163 16 16z"></path>
            <path fill="#fff" style="fill: var(--color2, #fff)"
                d="M13.246 23.010c6.141 0 9.499-5.087 9.499-9.499 0-0.149 0-0.287-0.010-0.43 0.656-0.478 1.208-1.051 1.65-1.704l0.015-0.024c-0.558 0.254-1.206 0.439-1.885 0.522l-0.032 0.003c0.69-0.419 1.209-1.060 1.461-1.823l0.007-0.024c-0.61 0.368-1.32 0.649-2.076 0.802l-0.043 0.007c-0.611-0.648-1.475-1.052-2.434-1.052-1.845 0-3.341 1.496-3.341 3.341 0 0.268 0.032 0.529 0.091 0.778l-0.005-0.023c-2.78-0.143-5.226-1.464-6.866-3.47l-0.013-0.017c-0.284 0.481-0.452 1.060-0.452 1.678 0 1.153 0.585 2.17 1.473 2.77l0.012 0.008c-0.559-0.017-1.078-0.17-1.532-0.427l0.017 0.009v0.042c0 0 0 0 0 0.001 0 1.611 1.14 2.955 2.657 3.27l0.022 0.004c-0.262 0.074-0.563 0.117-0.875 0.117-0.223 0-0.442-0.022-0.653-0.064l0.021 0.004c0.439 1.34 1.668 2.294 3.123 2.319l0.003 0c-1.125 0.892-2.565 1.432-4.132 1.432-0.285 0-0.566-0.018-0.841-0.052l0.033 0.003c1.441 0.938 3.204 1.496 5.097 1.496 0.003 0 0.007 0 0.010 0h-0.001z">
            </path>
        </symbol>

        <symbol id="icon-mail" viewBox="0 0 32 32">

            <path d="M32 16c0 8.837-7.163 16-16 16s-16-7.163-16-16c0-8.837 7.163-16 16-16s16 7.163 16 16z"></path>

            <path fill="#fff" style="fill: var(--color2, #fff)"
                d="M20.92 12c-0.176-0.922-0.655-1.71-1.327-2.275l-0.006-0.005c-0.699-0.613-1.621-0.987-2.631-0.987-0.013 0-0.025 0-0.038 0h-10.518c-0.018-0-0.040-0-0.061-0-1.196 0-2.269 0.525-3.002 1.356l-0.004 0.004v0.080c-0.576 0.688-0.925 1.583-0.925 2.559 0 0.212 0.017 0.421 0.048 0.624l-0.003-0.023 1.173 6.667c0.342 1.891 1.975 3.307 3.94 3.307 0.021 0 0.042-0 0.064-0l-0.003 0h10.587c1.223-0.003 2.317-0.554 3.048-1.421l0.005-0.006c0.553-0.681 0.888-1.558 0.888-2.514 0-0.247-0.022-0.489-0.065-0.724l0.004 0.024zM16.373 11.333l-3.12 3.52c-0.245 0.275-0.601 0.447-0.996 0.447-0.321 0-0.616-0.114-0.846-0.303l0.002 0.002-4.52-3.667zM19.173 20.187c-0.244 0.291-0.607 0.476-1.013 0.48h-10.587c-0.006 0-0.013 0-0.019 0-0.656 0-1.202-0.474-1.313-1.099l-0.001-0.008-1.080-6.227 4.573 3.733c0.682 0.558 1.564 0.897 2.524 0.897 1.191 0 2.26-0.52 2.993-1.346l0.004-0.004 3.147-3.547 1.067 6.040c0.012 0.067 0.019 0.144 0.019 0.223 0 0.327-0.118 0.627-0.314 0.859l0.002-0.002zM28.28 14h-2.667c-0.736 0-1.333 0.597-1.333 1.333s0.597 1.333 1.333 1.333v0h2.667c0.736 0 1.333-0.597 1.333-1.333s-0.597-1.333-1.333-1.333v0zM28.28 11.333c0.736 0 1.333-0.597 1.333-1.333s-0.597-1.333-1.333-1.333v0h-4c-0.736 0-1.333 0.597-1.333 1.333s0.597 1.333 1.333 1.333v0z">
            </path>
        </symbol>

        <symbol id="icon-chevrons-up" viewBox="0 0 24 24">
            <path
                d="M17.707 10.293l-5-5c-0.391-0.391-1.024-0.391-1.414 0l-5 5c-0.391 0.391-0.391 1.024 0 1.414s1.024 0.391 1.414 0l4.293-4.293 4.293 4.293c0.391 0.391 1.024 0.391 1.414 0s0.391-1.024 0-1.414zM17.707 17.293l-5-5c-0.391-0.391-1.024-0.391-1.414 0l-5 5c-0.391 0.391-0.391 1.024 0 1.414s1.024 0.391 1.414 0l4.293-4.293 4.293 4.293c0.391 0.391 1.024 0.391 1.414 0s0.391-1.024 0-1.414z">
            </path>
        </symbol>
        <symbol id="icon-chevrons-down" viewBox="0 0 24 24">
            <path
                d="M6.293 13.707l5 5c0.391 0.391 1.024 0.391 1.414 0l5-5c0.391-0.391 0.391-1.024 0-1.414s-1.024-0.391-1.414 0l-4.293 4.293-4.293-4.293c-0.391-0.391-1.024-0.391-1.414 0s-0.391 1.024 0 1.414zM6.293 6.707l5 5c0.391 0.391 1.024 0.391 1.414 0l5-5c0.391-0.391 0.391-1.024 0-1.414s-1.024-0.391-1.414 0l-4.293 4.293-4.293-4.293c-0.391-0.391-1.024-0.391-1.414 0s-0.391 1.024 0 1.414z">
            </path>
        </symbol>
    </defs>
</svg>